G75*
%MOIN*%
%OFA0B0*%
%FSLAX25Y25*%
%IPPOS*%
%LPD*%
%AMOC8*
5,1,8,0,0,1.08239X$1,22.5*
%
%ADD10R,0.06299X0.07087*%
%ADD11R,0.07087X0.06299*%
%ADD12R,0.05512X0.04724*%
%ADD13R,0.05000X0.02200*%
%ADD14R,0.02200X0.05000*%
%ADD15R,0.05512X0.01378*%
%ADD16R,0.07480X0.07087*%
%ADD17R,0.07480X0.07480*%
%ADD18R,0.21654X0.07874*%
%ADD19R,0.04800X0.08800*%
%ADD20R,0.14173X0.08661*%
D10*
X0049988Y0041000D03*
X0061012Y0041000D03*
X0061012Y0051000D03*
X0049988Y0051000D03*
X0049988Y0061000D03*
X0061012Y0061000D03*
X0061012Y0071000D03*
X0049988Y0071000D03*
X0084988Y0096000D03*
X0096012Y0096000D03*
X0164988Y0116000D03*
X0176012Y0116000D03*
X0136012Y0021000D03*
X0124988Y0021000D03*
X0096012Y0021000D03*
X0084988Y0021000D03*
D11*
X0085500Y0070488D03*
X0085500Y0081512D03*
X0025500Y0095488D03*
X0025500Y0106512D03*
D12*
X0025500Y0086906D03*
X0025500Y0075094D03*
D13*
X0103600Y0074425D03*
X0103600Y0077575D03*
X0103600Y0080724D03*
X0103600Y0083874D03*
X0103600Y0087024D03*
X0103600Y0071276D03*
X0103600Y0068126D03*
X0103600Y0064976D03*
X0137400Y0064976D03*
X0137400Y0068126D03*
X0137400Y0071276D03*
X0137400Y0074425D03*
X0137400Y0077575D03*
X0137400Y0080724D03*
X0137400Y0083874D03*
X0137400Y0087024D03*
D14*
X0131524Y0092900D03*
X0128374Y0092900D03*
X0125224Y0092900D03*
X0122075Y0092900D03*
X0118925Y0092900D03*
X0115776Y0092900D03*
X0112626Y0092900D03*
X0109476Y0092900D03*
X0109476Y0059100D03*
X0112626Y0059100D03*
X0115776Y0059100D03*
X0118925Y0059100D03*
X0122075Y0059100D03*
X0125224Y0059100D03*
X0128374Y0059100D03*
X0131524Y0059100D03*
D15*
X0025933Y0046118D03*
X0025933Y0043559D03*
X0025933Y0041000D03*
X0025933Y0038441D03*
X0025933Y0035882D03*
D16*
X0015500Y0025252D03*
X0015500Y0056748D03*
D17*
X0015500Y0046000D03*
X0015500Y0036000D03*
D18*
X0091799Y0041000D03*
X0129201Y0041000D03*
D19*
X0064600Y0093800D03*
X0055500Y0093800D03*
X0046400Y0093800D03*
D20*
X0055500Y0118201D03*
M02*
