G75*
%MOIN*%
%OFA0B0*%
%FSLAX25Y25*%
%IPPOS*%
%LPD*%
%AMOC8*
5,1,8,0,0,1.08239X$1,22.5*
%
%ADD10C,0.00500*%
%ADD11C,0.00200*%
%ADD12C,0.00800*%
%ADD13C,0.00600*%
D10*
X0021750Y0009834D02*
X0021750Y0011001D01*
X0022334Y0011585D01*
X0024085Y0011585D01*
X0024085Y0012753D02*
X0024085Y0009250D01*
X0022334Y0009250D01*
X0021750Y0009834D01*
X0025433Y0009834D02*
X0026017Y0010418D01*
X0027768Y0010418D01*
X0027768Y0011001D02*
X0027768Y0009250D01*
X0026017Y0009250D01*
X0025433Y0009834D01*
X0027185Y0011585D02*
X0027768Y0011001D01*
X0027185Y0011585D02*
X0026017Y0011585D01*
X0029116Y0011585D02*
X0030868Y0011585D01*
X0031452Y0011001D01*
X0031452Y0009250D01*
X0032799Y0009250D02*
X0033967Y0009250D01*
X0033383Y0009250D02*
X0033383Y0011585D01*
X0032799Y0011585D01*
X0033383Y0012753D02*
X0033383Y0013337D01*
X0033383Y0014450D02*
X0033383Y0016785D01*
X0032799Y0016785D01*
X0033383Y0017953D02*
X0033383Y0018537D01*
X0033383Y0019650D02*
X0033383Y0023153D01*
X0032799Y0023153D02*
X0033967Y0023153D01*
X0035255Y0023153D02*
X0037006Y0023153D01*
X0037590Y0022569D01*
X0037590Y0021401D01*
X0037006Y0020818D01*
X0035255Y0020818D01*
X0036423Y0020818D02*
X0037590Y0019650D01*
X0038938Y0019650D02*
X0038938Y0023153D01*
X0040689Y0023153D01*
X0041273Y0022569D01*
X0041273Y0021401D01*
X0040689Y0020818D01*
X0038938Y0020818D01*
X0040106Y0020818D02*
X0041273Y0019650D01*
X0042621Y0020234D02*
X0042621Y0021401D01*
X0043205Y0021985D01*
X0044373Y0021985D01*
X0044956Y0021401D01*
X0044956Y0020818D01*
X0042621Y0020818D01*
X0042621Y0020234D02*
X0043205Y0019650D01*
X0044373Y0019650D01*
X0045077Y0017953D02*
X0046828Y0017953D01*
X0047412Y0017369D01*
X0047412Y0016201D01*
X0046828Y0015618D01*
X0045077Y0015618D01*
X0046244Y0015618D02*
X0047412Y0014450D01*
X0048760Y0015034D02*
X0048760Y0016201D01*
X0049344Y0016785D01*
X0050511Y0016785D01*
X0051095Y0016201D01*
X0051095Y0015618D01*
X0048760Y0015618D01*
X0048760Y0015034D02*
X0049344Y0014450D01*
X0050511Y0014450D01*
X0052443Y0014450D02*
X0052443Y0016785D01*
X0053027Y0016785D01*
X0053611Y0016201D01*
X0054194Y0016785D01*
X0054778Y0016201D01*
X0054778Y0014450D01*
X0053611Y0014450D02*
X0053611Y0016201D01*
X0056126Y0016785D02*
X0056126Y0013282D01*
X0056126Y0014450D02*
X0057877Y0014450D01*
X0058461Y0015034D01*
X0058461Y0016201D01*
X0057877Y0016785D01*
X0056126Y0016785D01*
X0057294Y0019650D02*
X0058461Y0021985D01*
X0059809Y0021401D02*
X0060393Y0021985D01*
X0061561Y0021985D01*
X0062144Y0021401D01*
X0062144Y0020818D01*
X0059809Y0020818D01*
X0059809Y0021401D02*
X0059809Y0020234D01*
X0060393Y0019650D01*
X0061561Y0019650D01*
X0063492Y0019650D02*
X0063492Y0021985D01*
X0063492Y0020818D02*
X0064660Y0021985D01*
X0065244Y0021985D01*
X0064076Y0017953D02*
X0063492Y0017953D01*
X0064076Y0017953D02*
X0064076Y0014450D01*
X0063492Y0014450D02*
X0064660Y0014450D01*
X0062144Y0015618D02*
X0059809Y0015618D01*
X0059809Y0016201D02*
X0060393Y0016785D01*
X0061561Y0016785D01*
X0062144Y0016201D01*
X0062144Y0015618D01*
X0061561Y0014450D02*
X0060393Y0014450D01*
X0059809Y0015034D01*
X0059809Y0016201D01*
X0060393Y0012753D02*
X0061561Y0012753D01*
X0062144Y0012169D01*
X0062144Y0011001D01*
X0061561Y0010418D01*
X0061561Y0011585D01*
X0060393Y0011585D01*
X0060393Y0010418D01*
X0061561Y0010418D01*
X0062144Y0009834D02*
X0061561Y0009250D01*
X0060393Y0009250D01*
X0059809Y0009834D01*
X0059809Y0012169D01*
X0060393Y0012753D01*
X0057938Y0012753D02*
X0057938Y0009250D01*
X0058521Y0009250D02*
X0057354Y0009250D01*
X0056006Y0010418D02*
X0053671Y0010418D01*
X0053671Y0011001D02*
X0054254Y0011585D01*
X0055422Y0011585D01*
X0056006Y0011001D01*
X0056006Y0010418D01*
X0055422Y0009250D02*
X0054254Y0009250D01*
X0053671Y0009834D01*
X0053671Y0011001D01*
X0052323Y0011001D02*
X0052323Y0009834D01*
X0051739Y0009250D01*
X0049987Y0009250D01*
X0049987Y0008082D02*
X0049987Y0011585D01*
X0051739Y0011585D01*
X0052323Y0011001D01*
X0048640Y0011001D02*
X0048640Y0009250D01*
X0047472Y0009250D02*
X0047472Y0011001D01*
X0048056Y0011585D01*
X0048640Y0011001D01*
X0047472Y0011001D02*
X0046888Y0011585D01*
X0046304Y0011585D01*
X0046304Y0009250D01*
X0044956Y0010418D02*
X0042621Y0010418D01*
X0042621Y0011001D02*
X0043205Y0011585D01*
X0044373Y0011585D01*
X0044956Y0011001D01*
X0044956Y0010418D01*
X0044373Y0009250D02*
X0043205Y0009250D01*
X0042621Y0009834D01*
X0042621Y0011001D01*
X0041303Y0011585D02*
X0040720Y0011585D01*
X0039552Y0010418D01*
X0039552Y0011585D02*
X0039552Y0009250D01*
X0038294Y0009250D02*
X0037710Y0009250D01*
X0037710Y0009834D01*
X0038294Y0009834D01*
X0038294Y0009250D01*
X0036423Y0009250D02*
X0035255Y0009250D01*
X0035839Y0009250D02*
X0035839Y0012753D01*
X0035255Y0012753D01*
X0035839Y0014450D02*
X0035255Y0015034D01*
X0035255Y0016201D01*
X0035839Y0016785D01*
X0037006Y0016785D01*
X0037590Y0016201D01*
X0037590Y0015618D01*
X0035255Y0015618D01*
X0035839Y0014450D02*
X0037006Y0014450D01*
X0038938Y0014450D02*
X0040106Y0014450D01*
X0039522Y0014450D02*
X0039522Y0017953D01*
X0038938Y0017953D01*
X0035255Y0019650D02*
X0035255Y0023153D01*
X0031452Y0022569D02*
X0031452Y0021985D01*
X0030868Y0021401D01*
X0029116Y0021401D01*
X0027768Y0020818D02*
X0027768Y0020234D01*
X0027185Y0019650D01*
X0026017Y0019650D01*
X0025433Y0020234D01*
X0026017Y0021401D02*
X0027185Y0021401D01*
X0027768Y0020818D01*
X0027768Y0022569D02*
X0027185Y0023153D01*
X0026017Y0023153D01*
X0025433Y0022569D01*
X0025433Y0021985D01*
X0026017Y0021401D01*
X0024085Y0020234D02*
X0024085Y0023153D01*
X0021750Y0023153D02*
X0021750Y0020234D01*
X0022334Y0019650D01*
X0023501Y0019650D01*
X0024085Y0020234D01*
X0023501Y0017953D02*
X0021750Y0017953D01*
X0021750Y0014450D01*
X0023501Y0014450D01*
X0024085Y0015034D01*
X0024085Y0017369D01*
X0023501Y0017953D01*
X0026017Y0016785D02*
X0027185Y0016785D01*
X0027768Y0016201D01*
X0027768Y0014450D01*
X0026017Y0014450D01*
X0025433Y0015034D01*
X0026017Y0015618D01*
X0027768Y0015618D01*
X0029116Y0016785D02*
X0029116Y0014450D01*
X0031452Y0014450D02*
X0031452Y0016201D01*
X0030868Y0016785D01*
X0029116Y0016785D01*
X0029116Y0019650D02*
X0030868Y0019650D01*
X0031452Y0020234D01*
X0031452Y0020818D01*
X0030868Y0021401D01*
X0031452Y0022569D02*
X0030868Y0023153D01*
X0029116Y0023153D01*
X0029116Y0019650D01*
X0032799Y0019650D02*
X0033967Y0019650D01*
X0033967Y0014450D02*
X0032799Y0014450D01*
X0029116Y0011585D02*
X0029116Y0009250D01*
X0045077Y0014450D02*
X0045077Y0017953D01*
X0046888Y0019650D02*
X0048640Y0019650D01*
X0049987Y0020234D02*
X0049987Y0021401D01*
X0050571Y0021985D01*
X0051739Y0021985D01*
X0052323Y0021401D01*
X0052323Y0020818D01*
X0049987Y0020818D01*
X0049987Y0020234D02*
X0050571Y0019650D01*
X0051739Y0019650D01*
X0053671Y0019650D02*
X0054838Y0019650D01*
X0054254Y0019650D02*
X0054254Y0021985D01*
X0053671Y0021985D01*
X0054254Y0023153D02*
X0054254Y0023737D01*
X0056126Y0021985D02*
X0057294Y0019650D01*
X0048640Y0021985D02*
X0046888Y0021985D01*
X0046304Y0021401D01*
X0046304Y0020234D01*
X0046888Y0019650D01*
X0057354Y0012753D02*
X0057938Y0012753D01*
X0063492Y0011001D02*
X0063492Y0009834D01*
X0064076Y0009250D01*
X0065828Y0009250D01*
X0065828Y0008666D02*
X0065244Y0008082D01*
X0064660Y0008082D01*
X0065828Y0008666D02*
X0065828Y0011585D01*
X0064076Y0011585D01*
X0063492Y0011001D01*
X0067175Y0011585D02*
X0067175Y0009250D01*
X0068343Y0009250D02*
X0068343Y0011001D01*
X0068927Y0011585D01*
X0069511Y0011001D01*
X0069511Y0009250D01*
X0070859Y0009834D02*
X0071442Y0010418D01*
X0073194Y0010418D01*
X0073194Y0011001D02*
X0073194Y0009250D01*
X0071442Y0009250D01*
X0070859Y0009834D01*
X0072610Y0011585D02*
X0073194Y0011001D01*
X0072610Y0011585D02*
X0071442Y0011585D01*
X0068343Y0011001D02*
X0067759Y0011585D01*
X0067175Y0011585D01*
X0074542Y0011585D02*
X0075126Y0011585D01*
X0075126Y0009250D01*
X0075709Y0009250D02*
X0074542Y0009250D01*
X0076997Y0009250D02*
X0078165Y0009250D01*
X0077581Y0009250D02*
X0077581Y0012753D01*
X0076997Y0012753D01*
X0075126Y0012753D02*
X0075126Y0013337D01*
X0079453Y0009834D02*
X0080036Y0009834D01*
X0080036Y0009250D01*
X0079453Y0009250D01*
X0079453Y0009834D01*
X0081294Y0009834D02*
X0081294Y0011001D01*
X0081878Y0011585D01*
X0083629Y0011585D01*
X0084977Y0011001D02*
X0084977Y0009834D01*
X0085561Y0009250D01*
X0086729Y0009250D01*
X0087313Y0009834D01*
X0087313Y0011001D01*
X0086729Y0011585D01*
X0085561Y0011585D01*
X0084977Y0011001D01*
X0083629Y0009250D02*
X0081878Y0009250D01*
X0081294Y0009834D01*
X0088660Y0009250D02*
X0088660Y0011585D01*
X0089244Y0011585D01*
X0089828Y0011001D01*
X0090412Y0011585D01*
X0090996Y0011001D01*
X0090996Y0009250D01*
X0089828Y0009250D02*
X0089828Y0011001D01*
X0100750Y0011834D02*
X0101334Y0011250D01*
X0102501Y0011250D01*
X0103085Y0011834D01*
X0104433Y0011250D02*
X0106768Y0013585D01*
X0106768Y0014169D01*
X0106185Y0014753D01*
X0105017Y0014753D01*
X0104433Y0014169D01*
X0103085Y0014169D02*
X0102501Y0014753D01*
X0101334Y0014753D01*
X0100750Y0014169D01*
X0100750Y0011834D01*
X0104433Y0011250D02*
X0106768Y0011250D01*
X0078105Y0019650D02*
X0075769Y0019650D01*
X0076937Y0019650D02*
X0076937Y0023153D01*
X0075769Y0021985D01*
X0074512Y0020234D02*
X0074512Y0019650D01*
X0073928Y0019650D01*
X0073928Y0020234D01*
X0074512Y0020234D01*
X0072580Y0020234D02*
X0071996Y0019650D01*
X0070829Y0019650D01*
X0070245Y0020234D01*
X0072580Y0022569D01*
X0072580Y0020234D01*
X0070245Y0020234D02*
X0070245Y0022569D01*
X0070829Y0023153D01*
X0071996Y0023153D01*
X0072580Y0022569D01*
X0043685Y0040750D02*
X0043685Y0044253D01*
X0041933Y0042501D01*
X0044268Y0042501D01*
X0040585Y0042501D02*
X0040001Y0041918D01*
X0038250Y0041918D01*
X0039418Y0041918D02*
X0040585Y0040750D01*
X0038250Y0040750D02*
X0038250Y0044253D01*
X0040001Y0044253D01*
X0040585Y0043669D01*
X0040585Y0042501D01*
X0040585Y0048750D02*
X0039418Y0049918D01*
X0040001Y0049918D02*
X0038250Y0049918D01*
X0038250Y0048750D02*
X0038250Y0052253D01*
X0040001Y0052253D01*
X0040585Y0051669D01*
X0040585Y0050501D01*
X0040001Y0049918D01*
X0041933Y0049334D02*
X0042517Y0048750D01*
X0043685Y0048750D01*
X0044268Y0049334D01*
X0044268Y0049918D01*
X0043685Y0050501D01*
X0043101Y0050501D01*
X0043685Y0050501D02*
X0044268Y0051085D01*
X0044268Y0051669D01*
X0043685Y0052253D01*
X0042517Y0052253D01*
X0041933Y0051669D01*
X0041933Y0066250D02*
X0044268Y0068585D01*
X0044268Y0069169D01*
X0043685Y0069753D01*
X0042517Y0069753D01*
X0041933Y0069169D01*
X0040585Y0069169D02*
X0040585Y0068001D01*
X0040001Y0067418D01*
X0038250Y0067418D01*
X0039418Y0067418D02*
X0040585Y0066250D01*
X0041933Y0066250D02*
X0044268Y0066250D01*
X0040585Y0069169D02*
X0040001Y0069753D01*
X0038250Y0069753D01*
X0038250Y0066250D01*
X0037750Y0076250D02*
X0037750Y0079753D01*
X0039501Y0079753D01*
X0040085Y0079169D01*
X0040085Y0078001D01*
X0039501Y0077418D01*
X0037750Y0077418D01*
X0038918Y0077418D02*
X0040085Y0076250D01*
X0041433Y0076834D02*
X0042017Y0076250D01*
X0043185Y0076250D01*
X0043768Y0076834D01*
X0043768Y0078001D01*
X0043185Y0078585D01*
X0042601Y0078585D01*
X0041433Y0078001D01*
X0041433Y0079753D01*
X0043768Y0079753D01*
X0020768Y0076250D02*
X0018433Y0076250D01*
X0019601Y0076250D02*
X0019601Y0079753D01*
X0018433Y0078585D01*
X0017085Y0079169D02*
X0017085Y0076834D01*
X0016501Y0076250D01*
X0014750Y0076250D01*
X0014750Y0079753D01*
X0016501Y0079753D01*
X0017085Y0079169D01*
X0016585Y0096250D02*
X0015418Y0097418D01*
X0016001Y0097418D02*
X0014250Y0097418D01*
X0014250Y0096250D02*
X0014250Y0099753D01*
X0016001Y0099753D01*
X0016585Y0099169D01*
X0016585Y0098001D01*
X0016001Y0097418D01*
X0017933Y0098585D02*
X0019101Y0099753D01*
X0019101Y0096250D01*
X0020268Y0096250D02*
X0017933Y0096250D01*
X0043750Y0104250D02*
X0043750Y0106585D01*
X0044918Y0107753D01*
X0046085Y0106585D01*
X0046085Y0104250D01*
X0047433Y0104250D02*
X0047433Y0107753D01*
X0048601Y0106585D01*
X0049768Y0107753D01*
X0049768Y0104250D01*
X0051116Y0104834D02*
X0051700Y0104250D01*
X0052868Y0104250D01*
X0053452Y0104834D01*
X0053452Y0105418D01*
X0052868Y0106001D01*
X0051700Y0106001D01*
X0051116Y0106585D01*
X0051116Y0107169D01*
X0051700Y0107753D01*
X0052868Y0107753D01*
X0053452Y0107169D01*
X0054799Y0106585D02*
X0055967Y0107753D01*
X0055967Y0104250D01*
X0054799Y0104250D02*
X0057135Y0104250D01*
X0058483Y0104250D02*
X0060818Y0104250D01*
X0059650Y0104250D02*
X0059650Y0107753D01*
X0058483Y0106585D01*
X0062166Y0106585D02*
X0063333Y0107753D01*
X0063333Y0104250D01*
X0062166Y0104250D02*
X0064501Y0104250D01*
X0065849Y0104250D02*
X0065849Y0104834D01*
X0068184Y0107169D01*
X0068184Y0107753D01*
X0065849Y0107753D01*
X0080750Y0104753D02*
X0080750Y0101250D01*
X0080750Y0102418D02*
X0082501Y0102418D01*
X0083085Y0103001D01*
X0083085Y0104169D01*
X0082501Y0104753D01*
X0080750Y0104753D01*
X0081918Y0102418D02*
X0083085Y0101250D01*
X0084433Y0101834D02*
X0084433Y0103001D01*
X0086185Y0103001D01*
X0086768Y0102418D01*
X0086768Y0101834D01*
X0086185Y0101250D01*
X0085017Y0101250D01*
X0084433Y0101834D01*
X0084433Y0103001D02*
X0085601Y0104169D01*
X0086768Y0104753D01*
X0122283Y0081440D02*
X0123109Y0082265D01*
X0123935Y0082265D01*
X0125173Y0081027D01*
X0123935Y0079788D01*
X0123109Y0079788D01*
X0123109Y0080614D01*
X0124348Y0081852D01*
X0125301Y0082805D02*
X0125301Y0083631D01*
X0126126Y0084457D01*
X0126952Y0084457D01*
X0127365Y0084044D01*
X0127365Y0083218D01*
X0126539Y0082393D01*
X0125713Y0082393D01*
X0125301Y0082805D01*
X0125301Y0083631D02*
X0124475Y0083631D01*
X0124062Y0084044D01*
X0124062Y0084870D01*
X0124888Y0085695D01*
X0125713Y0085695D01*
X0126126Y0085282D01*
X0126126Y0084457D01*
X0126254Y0087061D02*
X0128731Y0084584D01*
X0130382Y0086235D01*
X0122982Y0078010D02*
X0120917Y0080074D01*
X0119679Y0078835D01*
X0119679Y0078009D01*
X0120505Y0077184D01*
X0121330Y0077184D01*
X0122569Y0078422D01*
X0122982Y0078010D02*
X0122982Y0077184D01*
X0122569Y0076771D01*
X0119552Y0075405D02*
X0118726Y0074579D01*
X0117900Y0074579D01*
X0117075Y0075405D01*
X0117075Y0076231D01*
X0117900Y0077056D01*
X0118726Y0077056D01*
X0119139Y0076644D01*
X0117487Y0074992D01*
X0116122Y0074452D02*
X0117360Y0073214D01*
X0116534Y0072388D02*
X0115296Y0073626D01*
X0115296Y0074452D01*
X0116122Y0074452D01*
X0115296Y0073626D02*
X0114470Y0073626D01*
X0114057Y0073214D01*
X0115709Y0071562D01*
X0113930Y0069784D02*
X0111453Y0072261D01*
X0112279Y0073086D02*
X0110627Y0071435D01*
X0110500Y0069656D02*
X0108849Y0069656D01*
X0108849Y0068005D01*
X0110500Y0066354D01*
X0109262Y0067592D02*
X0110913Y0069243D01*
X0110500Y0069656D02*
X0112151Y0068005D01*
X0079268Y0069334D02*
X0078685Y0068750D01*
X0077517Y0068750D01*
X0076933Y0069334D01*
X0075585Y0069334D02*
X0075001Y0068750D01*
X0073834Y0068750D01*
X0073250Y0069334D01*
X0073250Y0071669D01*
X0073834Y0072253D01*
X0075001Y0072253D01*
X0075585Y0071669D01*
X0076933Y0071669D02*
X0077517Y0072253D01*
X0078685Y0072253D01*
X0079268Y0071669D01*
X0079268Y0071085D01*
X0078685Y0070501D01*
X0079268Y0069918D01*
X0079268Y0069334D01*
X0078685Y0070501D02*
X0078101Y0070501D01*
X0046085Y0106001D02*
X0043750Y0106001D01*
X0142250Y0097869D02*
X0142250Y0097285D01*
X0142834Y0096701D01*
X0144001Y0096701D01*
X0144585Y0096118D01*
X0144585Y0095534D01*
X0144001Y0094950D01*
X0142834Y0094950D01*
X0142250Y0095534D01*
X0142250Y0093253D02*
X0142250Y0090918D01*
X0143418Y0089750D01*
X0144585Y0090918D01*
X0144585Y0093253D01*
X0145933Y0092669D02*
X0145933Y0092085D01*
X0146517Y0091501D01*
X0147685Y0091501D01*
X0148268Y0090918D01*
X0148268Y0090334D01*
X0147685Y0089750D01*
X0146517Y0089750D01*
X0145933Y0090334D01*
X0145933Y0092669D02*
X0146517Y0093253D01*
X0147685Y0093253D01*
X0148268Y0092669D01*
X0149616Y0092085D02*
X0150784Y0093253D01*
X0150784Y0089750D01*
X0149616Y0089750D02*
X0151952Y0089750D01*
X0153299Y0090334D02*
X0153299Y0090918D01*
X0153883Y0091501D01*
X0155051Y0091501D01*
X0155635Y0090918D01*
X0155635Y0090334D01*
X0155051Y0089750D01*
X0153883Y0089750D01*
X0153299Y0090334D01*
X0153883Y0091501D02*
X0153299Y0092085D01*
X0153299Y0092669D01*
X0153883Y0093253D01*
X0155051Y0093253D01*
X0155635Y0092669D01*
X0155635Y0092085D01*
X0155051Y0091501D01*
X0156983Y0090334D02*
X0157566Y0089750D01*
X0158734Y0089750D01*
X0159318Y0090334D01*
X0159318Y0090918D01*
X0158734Y0091501D01*
X0158150Y0091501D01*
X0158734Y0091501D02*
X0159318Y0092085D01*
X0159318Y0092669D01*
X0158734Y0093253D01*
X0157566Y0093253D01*
X0156983Y0092669D01*
X0157506Y0094950D02*
X0156339Y0094950D01*
X0155755Y0095534D01*
X0155755Y0097869D01*
X0156339Y0098453D01*
X0157506Y0098453D01*
X0158090Y0097869D01*
X0158090Y0096701D02*
X0156923Y0096701D01*
X0158090Y0096701D02*
X0158090Y0095534D01*
X0157506Y0094950D01*
X0159438Y0094950D02*
X0159438Y0098453D01*
X0161773Y0094950D01*
X0161773Y0098453D01*
X0163121Y0098453D02*
X0164873Y0098453D01*
X0165456Y0097869D01*
X0165456Y0095534D01*
X0164873Y0094950D01*
X0163121Y0094950D01*
X0163121Y0098453D01*
X0170487Y0098453D02*
X0170487Y0096118D01*
X0171655Y0094950D01*
X0172823Y0096118D01*
X0172823Y0098453D01*
X0174171Y0097869D02*
X0174171Y0095534D01*
X0174754Y0094950D01*
X0175922Y0094950D01*
X0176506Y0095534D01*
X0177854Y0095534D02*
X0178438Y0094950D01*
X0179605Y0094950D01*
X0180189Y0095534D01*
X0177854Y0095534D02*
X0177854Y0097869D01*
X0178438Y0098453D01*
X0179605Y0098453D01*
X0180189Y0097869D01*
X0176506Y0097869D02*
X0175922Y0098453D01*
X0174754Y0098453D01*
X0174171Y0097869D01*
X0166684Y0092669D02*
X0166684Y0092085D01*
X0166100Y0091501D01*
X0164933Y0091501D01*
X0164349Y0092085D01*
X0164349Y0092669D01*
X0164933Y0093253D01*
X0166100Y0093253D01*
X0166684Y0092669D01*
X0166100Y0091501D02*
X0166684Y0090918D01*
X0166684Y0090334D01*
X0166100Y0089750D01*
X0164933Y0089750D01*
X0164349Y0090334D01*
X0164349Y0090918D01*
X0164933Y0091501D01*
X0163001Y0090918D02*
X0163001Y0090334D01*
X0162417Y0089750D01*
X0161250Y0089750D01*
X0160666Y0090334D01*
X0160666Y0090918D01*
X0161250Y0091501D01*
X0162417Y0091501D01*
X0163001Y0090918D01*
X0162417Y0091501D02*
X0163001Y0092085D01*
X0163001Y0092669D01*
X0162417Y0093253D01*
X0161250Y0093253D01*
X0160666Y0092669D01*
X0160666Y0092085D01*
X0161250Y0091501D01*
X0150724Y0095534D02*
X0150724Y0096701D01*
X0149556Y0096701D01*
X0148389Y0095534D02*
X0148972Y0094950D01*
X0150140Y0094950D01*
X0150724Y0095534D01*
X0148389Y0095534D02*
X0148389Y0097869D01*
X0148972Y0098453D01*
X0150140Y0098453D01*
X0150724Y0097869D01*
X0147101Y0098453D02*
X0145933Y0098453D01*
X0146517Y0098453D02*
X0146517Y0094950D01*
X0145933Y0094950D02*
X0147101Y0094950D01*
X0144585Y0097869D02*
X0144001Y0098453D01*
X0142834Y0098453D01*
X0142250Y0097869D01*
X0153334Y0118750D02*
X0154501Y0118750D01*
X0155085Y0119334D01*
X0156433Y0120501D02*
X0158768Y0120501D01*
X0158185Y0118750D02*
X0158185Y0122253D01*
X0156433Y0120501D01*
X0155085Y0121669D02*
X0154501Y0122253D01*
X0153334Y0122253D01*
X0152750Y0121669D01*
X0152750Y0119334D01*
X0153334Y0118750D01*
X0119135Y0034753D02*
X0119135Y0031250D01*
X0120483Y0031250D02*
X0122818Y0031250D01*
X0122818Y0033585D02*
X0120483Y0031250D01*
X0119135Y0033001D02*
X0116799Y0033001D01*
X0116799Y0031250D02*
X0116799Y0034753D01*
X0115452Y0034753D02*
X0115452Y0031250D01*
X0113116Y0031250D02*
X0113116Y0034753D01*
X0114284Y0033585D01*
X0115452Y0034753D01*
X0111768Y0034169D02*
X0111185Y0034753D01*
X0110017Y0034753D01*
X0109433Y0034169D01*
X0111768Y0034169D02*
X0111768Y0033585D01*
X0109433Y0031250D01*
X0111768Y0031250D01*
X0108085Y0031250D02*
X0105750Y0031250D01*
X0106918Y0031250D02*
X0106918Y0034753D01*
X0105750Y0033585D01*
X0120483Y0033585D02*
X0122818Y0033585D01*
X0136334Y0014753D02*
X0135750Y0014169D01*
X0135750Y0011834D01*
X0136334Y0011250D01*
X0137501Y0011250D01*
X0138085Y0011834D01*
X0139433Y0011250D02*
X0141768Y0011250D01*
X0140601Y0011250D02*
X0140601Y0014753D01*
X0139433Y0013585D01*
X0138085Y0014169D02*
X0137501Y0014753D01*
X0136334Y0014753D01*
X0155750Y0013585D02*
X0155750Y0011250D01*
X0158085Y0011250D02*
X0158085Y0013585D01*
X0156918Y0014753D01*
X0155750Y0013585D01*
X0155750Y0013001D02*
X0158085Y0013001D01*
X0159433Y0012418D02*
X0160601Y0011250D01*
X0161768Y0012418D01*
X0161768Y0014753D01*
X0163116Y0014753D02*
X0164868Y0014753D01*
X0165452Y0014169D01*
X0165452Y0013001D01*
X0164868Y0012418D01*
X0163116Y0012418D01*
X0164284Y0012418D02*
X0165452Y0011250D01*
X0163116Y0011250D02*
X0163116Y0014753D01*
X0159433Y0014753D02*
X0159433Y0012418D01*
X0170483Y0011250D02*
X0171650Y0011250D01*
X0171066Y0011250D02*
X0171066Y0014753D01*
X0170483Y0014753D02*
X0171650Y0014753D01*
X0172938Y0014169D02*
X0172938Y0013585D01*
X0173522Y0013001D01*
X0174689Y0013001D01*
X0175273Y0012418D01*
X0175273Y0011834D01*
X0174689Y0011250D01*
X0173522Y0011250D01*
X0172938Y0011834D01*
X0172938Y0014169D02*
X0173522Y0014753D01*
X0174689Y0014753D01*
X0175273Y0014169D01*
X0176621Y0014753D02*
X0178373Y0014753D01*
X0178956Y0014169D01*
X0178956Y0013001D01*
X0178373Y0012418D01*
X0176621Y0012418D01*
X0176621Y0011250D02*
X0176621Y0014753D01*
D11*
X0157068Y0071100D02*
X0155600Y0071100D01*
X0156334Y0071100D02*
X0156334Y0073302D01*
X0155600Y0072568D01*
D12*
X0154575Y0068500D02*
X0154575Y0063500D01*
X0153689Y0054661D02*
X0147783Y0054661D01*
X0147783Y0085764D01*
X0182823Y0085764D01*
X0183217Y0085764D02*
X0183217Y0006236D01*
X0147783Y0006236D01*
X0147783Y0037339D01*
X0153689Y0037339D01*
X0153689Y0054661D01*
X0147783Y0054661D02*
X0147783Y0037339D01*
X0068400Y0099500D02*
X0042600Y0099500D01*
X0042600Y0112500D01*
X0068400Y0112500D01*
X0068400Y0099500D01*
X0029437Y0090449D02*
X0029437Y0084937D01*
X0027862Y0082181D02*
X0023138Y0082181D01*
X0025500Y0079819D01*
X0027862Y0082181D01*
X0028256Y0079819D02*
X0025500Y0079819D01*
X0022744Y0079819D01*
X0021563Y0077063D02*
X0021563Y0071551D01*
X0029437Y0071551D01*
X0029437Y0077063D01*
X0021563Y0084937D02*
X0021563Y0090449D01*
X0029437Y0090449D01*
X0026720Y0054386D02*
X0020421Y0054386D01*
X0026720Y0054386D02*
X0026720Y0049661D01*
X0021209Y0049661D01*
X0021209Y0032339D01*
X0026720Y0032339D01*
X0026720Y0027614D01*
X0020421Y0027614D01*
X0009791Y0027614D02*
X0009791Y0054386D01*
X0150500Y0103500D02*
X0153000Y0101000D01*
X0158000Y0101000D01*
X0160500Y0103500D01*
X0163000Y0101000D01*
X0168000Y0101000D01*
X0170500Y0103500D01*
X0173000Y0101000D01*
X0178000Y0101000D01*
X0180500Y0103500D01*
X0180500Y0108500D01*
X0178000Y0111000D01*
X0173000Y0111000D01*
X0170500Y0108500D01*
X0168000Y0111000D01*
X0163000Y0111000D01*
X0160500Y0108500D01*
X0158000Y0111000D01*
X0153000Y0111000D01*
X0150500Y0108500D01*
X0150500Y0103500D01*
D13*
X0134299Y0089799D02*
X0108098Y0089799D01*
X0106701Y0088402D01*
X0106701Y0062201D01*
X0134299Y0062201D01*
X0134299Y0089799D01*
X0108286Y0086800D02*
X0108288Y0086875D01*
X0108294Y0086949D01*
X0108304Y0087023D01*
X0108317Y0087096D01*
X0108335Y0087169D01*
X0108356Y0087240D01*
X0108381Y0087311D01*
X0108410Y0087380D01*
X0108443Y0087447D01*
X0108479Y0087512D01*
X0108518Y0087576D01*
X0108560Y0087637D01*
X0108606Y0087696D01*
X0108655Y0087753D01*
X0108707Y0087806D01*
X0108761Y0087857D01*
X0108818Y0087906D01*
X0108878Y0087950D01*
X0108940Y0087992D01*
X0109004Y0088031D01*
X0109070Y0088066D01*
X0109137Y0088097D01*
X0109207Y0088125D01*
X0109277Y0088149D01*
X0109349Y0088170D01*
X0109422Y0088186D01*
X0109495Y0088199D01*
X0109570Y0088208D01*
X0109644Y0088213D01*
X0109719Y0088214D01*
X0109793Y0088211D01*
X0109868Y0088204D01*
X0109941Y0088193D01*
X0110015Y0088179D01*
X0110087Y0088160D01*
X0110158Y0088138D01*
X0110228Y0088112D01*
X0110297Y0088082D01*
X0110363Y0088049D01*
X0110428Y0088012D01*
X0110491Y0087972D01*
X0110552Y0087928D01*
X0110610Y0087882D01*
X0110666Y0087832D01*
X0110719Y0087780D01*
X0110770Y0087725D01*
X0110817Y0087667D01*
X0110861Y0087607D01*
X0110902Y0087544D01*
X0110940Y0087480D01*
X0110974Y0087414D01*
X0111005Y0087345D01*
X0111032Y0087276D01*
X0111055Y0087205D01*
X0111074Y0087133D01*
X0111090Y0087060D01*
X0111102Y0086986D01*
X0111110Y0086912D01*
X0111114Y0086837D01*
X0111114Y0086763D01*
X0111110Y0086688D01*
X0111102Y0086614D01*
X0111090Y0086540D01*
X0111074Y0086467D01*
X0111055Y0086395D01*
X0111032Y0086324D01*
X0111005Y0086255D01*
X0110974Y0086186D01*
X0110940Y0086120D01*
X0110902Y0086056D01*
X0110861Y0085993D01*
X0110817Y0085933D01*
X0110770Y0085875D01*
X0110719Y0085820D01*
X0110666Y0085768D01*
X0110610Y0085718D01*
X0110552Y0085672D01*
X0110491Y0085628D01*
X0110428Y0085588D01*
X0110363Y0085551D01*
X0110297Y0085518D01*
X0110228Y0085488D01*
X0110158Y0085462D01*
X0110087Y0085440D01*
X0110015Y0085421D01*
X0109941Y0085407D01*
X0109868Y0085396D01*
X0109793Y0085389D01*
X0109719Y0085386D01*
X0109644Y0085387D01*
X0109570Y0085392D01*
X0109495Y0085401D01*
X0109422Y0085414D01*
X0109349Y0085430D01*
X0109277Y0085451D01*
X0109207Y0085475D01*
X0109137Y0085503D01*
X0109070Y0085534D01*
X0109004Y0085569D01*
X0108940Y0085608D01*
X0108878Y0085650D01*
X0108818Y0085694D01*
X0108761Y0085743D01*
X0108707Y0085794D01*
X0108655Y0085847D01*
X0108606Y0085904D01*
X0108560Y0085963D01*
X0108518Y0086024D01*
X0108479Y0086088D01*
X0108443Y0086153D01*
X0108410Y0086220D01*
X0108381Y0086289D01*
X0108356Y0086360D01*
X0108335Y0086431D01*
X0108317Y0086504D01*
X0108304Y0086577D01*
X0108294Y0086651D01*
X0108288Y0086725D01*
X0108286Y0086800D01*
M02*
