G75*
%MOIN*%
%OFA0B0*%
%FSLAX25Y25*%
%IPPOS*%
%LPD*%
%AMOC8*
5,1,8,0,0,1.08239X$1,22.5*
%
%ADD10C,0.00000*%
%ADD11R,0.06299X0.07087*%
%ADD12R,0.07087X0.06299*%
%ADD13R,0.05512X0.04724*%
%ADD14R,0.05000X0.02200*%
%ADD15R,0.02200X0.05000*%
%ADD16R,0.05512X0.01378*%
%ADD17R,0.07480X0.07087*%
%ADD18R,0.07480X0.07480*%
%ADD19OC8,0.07400*%
%ADD20C,0.07400*%
%ADD21R,0.21654X0.07874*%
%ADD22R,0.04800X0.08800*%
%ADD23R,0.14173X0.08661*%
%ADD24C,0.01600*%
%ADD25R,0.04362X0.04362*%
D10*
X0010500Y0006000D02*
X0010500Y0125961D01*
X0184201Y0125961D01*
X0184201Y0006000D01*
X0010500Y0006000D01*
D11*
X0049988Y0041000D03*
X0061012Y0041000D03*
X0061012Y0051000D03*
X0049988Y0051000D03*
X0049988Y0061000D03*
X0061012Y0061000D03*
X0061012Y0071000D03*
X0049988Y0071000D03*
X0084988Y0096000D03*
X0096012Y0096000D03*
X0164988Y0116000D03*
X0176012Y0116000D03*
X0136012Y0021000D03*
X0124988Y0021000D03*
X0096012Y0021000D03*
X0084988Y0021000D03*
D12*
X0085500Y0070488D03*
X0085500Y0081512D03*
X0025500Y0095488D03*
X0025500Y0106512D03*
D13*
X0025500Y0086906D03*
X0025500Y0075094D03*
D14*
X0103600Y0074425D03*
X0103600Y0077575D03*
X0103600Y0080724D03*
X0103600Y0083874D03*
X0103600Y0087024D03*
X0103600Y0071276D03*
X0103600Y0068126D03*
X0103600Y0064976D03*
X0137400Y0064976D03*
X0137400Y0068126D03*
X0137400Y0071276D03*
X0137400Y0074425D03*
X0137400Y0077575D03*
X0137400Y0080724D03*
X0137400Y0083874D03*
X0137400Y0087024D03*
D15*
X0131524Y0092900D03*
X0128374Y0092900D03*
X0125224Y0092900D03*
X0122075Y0092900D03*
X0118925Y0092900D03*
X0115776Y0092900D03*
X0112626Y0092900D03*
X0109476Y0092900D03*
X0109476Y0059100D03*
X0112626Y0059100D03*
X0115776Y0059100D03*
X0118925Y0059100D03*
X0122075Y0059100D03*
X0125224Y0059100D03*
X0128374Y0059100D03*
X0131524Y0059100D03*
D16*
X0025933Y0046118D03*
X0025933Y0043559D03*
X0025933Y0041000D03*
X0025933Y0038441D03*
X0025933Y0035882D03*
D17*
X0015500Y0025252D03*
X0015500Y0056748D03*
D18*
X0015500Y0046000D03*
X0015500Y0036000D03*
D19*
X0160500Y0036000D03*
X0170500Y0036000D03*
X0170500Y0046000D03*
X0160500Y0046000D03*
X0160500Y0056000D03*
X0170500Y0056000D03*
X0170500Y0066000D03*
X0160500Y0066000D03*
X0160500Y0026000D03*
X0170500Y0026000D03*
D20*
X0165500Y0106000D03*
X0155500Y0106000D03*
X0175500Y0106000D03*
D21*
X0129201Y0041000D03*
X0091799Y0041000D03*
D22*
X0064600Y0093800D03*
X0055500Y0093800D03*
X0046400Y0093800D03*
D23*
X0055500Y0118201D03*
D24*
X0046413Y0117896D02*
X0039681Y0117896D01*
X0039681Y0119010D02*
X0038510Y0120181D01*
X0032490Y0120181D01*
X0031319Y0119010D01*
X0031319Y0118800D01*
X0024943Y0118800D01*
X0023914Y0118374D01*
X0023126Y0117586D01*
X0022700Y0116557D01*
X0022700Y0111661D01*
X0021128Y0111661D01*
X0019957Y0110490D01*
X0019957Y0102534D01*
X0021128Y0101362D01*
X0029872Y0101362D01*
X0031043Y0102534D01*
X0031043Y0110490D01*
X0029872Y0111661D01*
X0028300Y0111661D01*
X0028300Y0113200D01*
X0031319Y0113200D01*
X0031319Y0112990D01*
X0032490Y0111819D01*
X0038510Y0111819D01*
X0039681Y0112990D01*
X0039681Y0119010D01*
X0039196Y0119494D02*
X0046413Y0119494D01*
X0046413Y0121093D02*
X0012500Y0121093D01*
X0012500Y0119494D02*
X0031804Y0119494D01*
X0035500Y0116000D02*
X0025500Y0116000D01*
X0025500Y0106512D01*
X0019957Y0106706D02*
X0012500Y0106706D01*
X0012500Y0105108D02*
X0019957Y0105108D01*
X0019957Y0103509D02*
X0012500Y0103509D01*
X0012500Y0101911D02*
X0020580Y0101911D01*
X0021128Y0100638D02*
X0019957Y0099466D01*
X0019957Y0091510D01*
X0021057Y0090409D01*
X0020744Y0090096D01*
X0020744Y0083715D01*
X0021916Y0082543D01*
X0029084Y0082543D01*
X0030256Y0083715D01*
X0030256Y0090096D01*
X0029943Y0090409D01*
X0031043Y0091510D01*
X0031043Y0099466D01*
X0029872Y0100638D01*
X0021128Y0100638D01*
X0020803Y0100312D02*
X0012500Y0100312D01*
X0012500Y0098714D02*
X0019957Y0098714D01*
X0019957Y0097115D02*
X0012500Y0097115D01*
X0012500Y0095517D02*
X0019957Y0095517D01*
X0019957Y0093918D02*
X0012500Y0093918D01*
X0012500Y0092320D02*
X0019957Y0092320D01*
X0020746Y0090721D02*
X0012500Y0090721D01*
X0012500Y0089123D02*
X0020744Y0089123D01*
X0020744Y0087524D02*
X0012500Y0087524D01*
X0012500Y0085926D02*
X0020744Y0085926D01*
X0020744Y0084327D02*
X0012500Y0084327D01*
X0012500Y0082729D02*
X0021730Y0082729D01*
X0022507Y0079257D02*
X0022049Y0079134D01*
X0021639Y0078897D01*
X0021304Y0078562D01*
X0021067Y0078151D01*
X0020944Y0077694D01*
X0020944Y0075476D01*
X0025119Y0075476D01*
X0025119Y0079257D01*
X0022507Y0079257D01*
X0021008Y0077933D02*
X0012500Y0077933D01*
X0012500Y0076334D02*
X0020944Y0076334D01*
X0020944Y0074713D02*
X0020944Y0072495D01*
X0021067Y0072038D01*
X0021304Y0071627D01*
X0021639Y0071292D01*
X0022049Y0071055D01*
X0022507Y0070932D01*
X0025119Y0070932D01*
X0025119Y0074713D01*
X0025881Y0074713D01*
X0025881Y0070932D01*
X0028493Y0070932D01*
X0028951Y0071055D01*
X0029361Y0071292D01*
X0029696Y0071627D01*
X0029933Y0072038D01*
X0030056Y0072495D01*
X0030056Y0074713D01*
X0025881Y0074713D01*
X0025881Y0075476D01*
X0025119Y0075476D01*
X0025119Y0074713D01*
X0020944Y0074713D01*
X0020944Y0073137D02*
X0012500Y0073137D01*
X0012500Y0074736D02*
X0025119Y0074736D01*
X0025500Y0075094D02*
X0025500Y0066000D01*
X0035500Y0066000D01*
X0035500Y0081000D01*
X0045500Y0081000D01*
X0045500Y0091000D01*
X0046400Y0091000D01*
X0046400Y0093800D01*
X0046800Y0093918D02*
X0051100Y0093918D01*
X0050600Y0094200D02*
X0050600Y0098437D01*
X0050477Y0098895D01*
X0050240Y0099305D01*
X0049905Y0099640D01*
X0049495Y0099877D01*
X0049037Y0100000D01*
X0046800Y0100000D01*
X0046800Y0094200D01*
X0050600Y0094200D01*
X0050600Y0093400D02*
X0046800Y0093400D01*
X0046800Y0094200D01*
X0046000Y0094200D01*
X0046000Y0100000D01*
X0043763Y0100000D01*
X0043305Y0099877D01*
X0042895Y0099640D01*
X0042560Y0099305D01*
X0042323Y0098895D01*
X0042200Y0098437D01*
X0042200Y0094200D01*
X0046000Y0094200D01*
X0046000Y0093400D01*
X0046800Y0093400D01*
X0046800Y0087600D01*
X0049037Y0087600D01*
X0049495Y0087723D01*
X0049905Y0087960D01*
X0050240Y0088295D01*
X0050477Y0088705D01*
X0050600Y0089163D01*
X0050600Y0093400D01*
X0050600Y0092320D02*
X0051100Y0092320D01*
X0051100Y0090721D02*
X0050600Y0090721D01*
X0050589Y0089123D02*
X0051100Y0089123D01*
X0051100Y0088572D02*
X0052272Y0087400D01*
X0052700Y0087400D01*
X0052700Y0085443D01*
X0053126Y0084414D01*
X0053914Y0083626D01*
X0054943Y0083200D01*
X0058212Y0083200D01*
X0058212Y0076543D01*
X0057034Y0076543D01*
X0055862Y0075372D01*
X0055862Y0066628D01*
X0056490Y0066000D01*
X0055862Y0065372D01*
X0055862Y0056628D01*
X0056490Y0056000D01*
X0055862Y0055372D01*
X0055862Y0046628D01*
X0056490Y0046000D01*
X0055862Y0045372D01*
X0055862Y0036628D01*
X0057034Y0035457D01*
X0057700Y0035457D01*
X0057700Y0035181D01*
X0057490Y0035181D01*
X0056319Y0034010D01*
X0056319Y0027990D01*
X0057490Y0026819D01*
X0063510Y0026819D01*
X0064681Y0027990D01*
X0064681Y0034010D01*
X0063510Y0035181D01*
X0063300Y0035181D01*
X0063300Y0035457D01*
X0064990Y0035457D01*
X0066161Y0036628D01*
X0066161Y0045372D01*
X0065533Y0046000D01*
X0066161Y0046628D01*
X0066161Y0048200D01*
X0066319Y0048200D01*
X0066319Y0047990D01*
X0067490Y0046819D01*
X0073510Y0046819D01*
X0074681Y0047990D01*
X0074681Y0054010D01*
X0073510Y0055181D01*
X0067490Y0055181D01*
X0066319Y0054010D01*
X0066319Y0053800D01*
X0066161Y0053800D01*
X0066161Y0055372D01*
X0065533Y0056000D01*
X0066161Y0056628D01*
X0066161Y0058200D01*
X0071319Y0058200D01*
X0071319Y0057990D01*
X0072490Y0056819D01*
X0078510Y0056819D01*
X0079681Y0057990D01*
X0079681Y0064010D01*
X0078510Y0065181D01*
X0072490Y0065181D01*
X0071319Y0064010D01*
X0071319Y0063800D01*
X0066161Y0063800D01*
X0066161Y0065372D01*
X0065533Y0066000D01*
X0066161Y0066628D01*
X0066161Y0075372D01*
X0064990Y0076543D01*
X0063812Y0076543D01*
X0063812Y0083200D01*
X0071319Y0083200D01*
X0071319Y0082990D01*
X0072490Y0081819D01*
X0078510Y0081819D01*
X0079681Y0082990D01*
X0079681Y0083200D01*
X0079957Y0083200D01*
X0079957Y0077534D01*
X0081128Y0076362D01*
X0089872Y0076362D01*
X0091043Y0077534D01*
X0091043Y0078200D01*
X0092700Y0078200D01*
X0092700Y0077018D01*
X0093126Y0075989D01*
X0093914Y0075201D01*
X0094943Y0074775D01*
X0099300Y0074775D01*
X0099300Y0074425D01*
X0099300Y0073404D01*
X0099100Y0073204D01*
X0099100Y0070800D01*
X0096943Y0070800D01*
X0095914Y0070374D01*
X0093914Y0068374D01*
X0093126Y0067586D01*
X0092700Y0066557D01*
X0092700Y0058800D01*
X0084943Y0058800D01*
X0083914Y0058374D01*
X0083126Y0057586D01*
X0082700Y0056557D01*
X0082700Y0046937D01*
X0080144Y0046937D01*
X0078972Y0045765D01*
X0078972Y0036235D01*
X0080144Y0035063D01*
X0082700Y0035063D01*
X0082700Y0026543D01*
X0081010Y0026543D01*
X0079839Y0025372D01*
X0079839Y0016628D01*
X0081010Y0015457D01*
X0088966Y0015457D01*
X0090138Y0016628D01*
X0090138Y0025372D01*
X0088966Y0026543D01*
X0088300Y0026543D01*
X0088300Y0035063D01*
X0103454Y0035063D01*
X0104626Y0036235D01*
X0104626Y0045765D01*
X0103454Y0046937D01*
X0088300Y0046937D01*
X0088300Y0053200D01*
X0096057Y0053200D01*
X0097086Y0053626D01*
X0097700Y0054240D01*
X0097700Y0050443D01*
X0098126Y0049414D01*
X0098914Y0048626D01*
X0099943Y0048200D01*
X0117700Y0048200D01*
X0117700Y0046937D01*
X0117546Y0046937D01*
X0116374Y0045765D01*
X0116374Y0036235D01*
X0117546Y0035063D01*
X0132700Y0035063D01*
X0132700Y0026543D01*
X0132034Y0026543D01*
X0130862Y0025372D01*
X0130862Y0016628D01*
X0132034Y0015457D01*
X0139990Y0015457D01*
X0141161Y0016628D01*
X0141161Y0025372D01*
X0139990Y0026543D01*
X0138300Y0026543D01*
X0138300Y0035063D01*
X0140856Y0035063D01*
X0142028Y0036235D01*
X0142028Y0042282D01*
X0142490Y0041819D01*
X0148510Y0041819D01*
X0149681Y0042990D01*
X0149681Y0049010D01*
X0148510Y0050181D01*
X0148300Y0050181D01*
X0148300Y0054057D01*
X0147874Y0055086D01*
X0147086Y0055874D01*
X0146057Y0056300D01*
X0143300Y0056300D01*
X0143300Y0056819D01*
X0148510Y0056819D01*
X0149681Y0057990D01*
X0149681Y0058200D01*
X0150700Y0058200D01*
X0150700Y0045443D01*
X0151126Y0044414D01*
X0151914Y0043626D01*
X0152943Y0043200D01*
X0155239Y0043200D01*
X0157439Y0041000D01*
X0154800Y0038361D01*
X0154800Y0033639D01*
X0157439Y0031000D01*
X0154800Y0028361D01*
X0154800Y0023639D01*
X0158139Y0020300D01*
X0162861Y0020300D01*
X0165641Y0023080D01*
X0168222Y0020500D01*
X0170300Y0020500D01*
X0170300Y0025800D01*
X0170700Y0025800D01*
X0170700Y0026200D01*
X0176000Y0026200D01*
X0176000Y0028278D01*
X0173278Y0031000D01*
X0176000Y0033722D01*
X0176000Y0035800D01*
X0170700Y0035800D01*
X0170700Y0036200D01*
X0176000Y0036200D01*
X0176000Y0038278D01*
X0173278Y0041000D01*
X0176000Y0043722D01*
X0176000Y0045800D01*
X0170700Y0045800D01*
X0170700Y0046200D01*
X0176000Y0046200D01*
X0176000Y0048278D01*
X0173278Y0051000D01*
X0176000Y0053722D01*
X0176000Y0055800D01*
X0170700Y0055800D01*
X0170700Y0056200D01*
X0176000Y0056200D01*
X0176000Y0058278D01*
X0173420Y0060859D01*
X0175761Y0063200D01*
X0176057Y0063200D01*
X0177086Y0063626D01*
X0177874Y0064414D01*
X0178300Y0065443D01*
X0178300Y0100990D01*
X0178729Y0101168D01*
X0180332Y0102771D01*
X0181200Y0104866D01*
X0181200Y0107134D01*
X0180332Y0109229D01*
X0179104Y0110457D01*
X0179990Y0110457D01*
X0181161Y0111628D01*
X0181161Y0120372D01*
X0179990Y0121543D01*
X0172034Y0121543D01*
X0170862Y0120372D01*
X0170862Y0111628D01*
X0171965Y0110526D01*
X0170668Y0109229D01*
X0170381Y0108536D01*
X0170204Y0108883D01*
X0169695Y0109583D01*
X0169083Y0110195D01*
X0168428Y0110671D01*
X0168833Y0110779D01*
X0169243Y0111016D01*
X0169578Y0111351D01*
X0169815Y0111762D01*
X0169938Y0112220D01*
X0169938Y0115225D01*
X0165763Y0115225D01*
X0165763Y0111500D01*
X0165700Y0111500D01*
X0165700Y0106200D01*
X0165300Y0106200D01*
X0165300Y0111500D01*
X0165067Y0111500D01*
X0164213Y0111365D01*
X0164213Y0115225D01*
X0160039Y0115225D01*
X0160039Y0112220D01*
X0160161Y0111762D01*
X0160398Y0111351D01*
X0160733Y0111016D01*
X0161144Y0110779D01*
X0161602Y0110657D01*
X0162552Y0110657D01*
X0161917Y0110195D01*
X0161305Y0109583D01*
X0160796Y0108883D01*
X0160619Y0108536D01*
X0160332Y0109229D01*
X0158729Y0110832D01*
X0158300Y0111010D01*
X0158300Y0111557D01*
X0157874Y0112586D01*
X0157086Y0113374D01*
X0156057Y0113800D01*
X0129681Y0113800D01*
X0129681Y0114010D01*
X0128510Y0115181D01*
X0122490Y0115181D01*
X0121319Y0114010D01*
X0121319Y0108800D01*
X0094943Y0108800D01*
X0093914Y0108374D01*
X0093126Y0107586D01*
X0092700Y0106557D01*
X0092700Y0101543D01*
X0092034Y0101543D01*
X0090862Y0100372D01*
X0090862Y0091628D01*
X0092034Y0090457D01*
X0099990Y0090457D01*
X0101161Y0091628D01*
X0101161Y0100372D01*
X0099990Y0101543D01*
X0098300Y0101543D01*
X0098300Y0103200D01*
X0101319Y0103200D01*
X0101319Y0097990D01*
X0102490Y0096819D01*
X0106676Y0096819D01*
X0106676Y0096528D01*
X0106376Y0096228D01*
X0106376Y0090124D01*
X0100272Y0090124D01*
X0099948Y0089800D01*
X0098891Y0089800D01*
X0098510Y0090181D01*
X0092490Y0090181D01*
X0091319Y0089010D01*
X0091319Y0083800D01*
X0091043Y0083800D01*
X0091043Y0085490D01*
X0089872Y0086661D01*
X0088300Y0086661D01*
X0088300Y0090457D01*
X0088966Y0090457D01*
X0090138Y0091628D01*
X0090138Y0100372D01*
X0088966Y0101543D01*
X0081010Y0101543D01*
X0079839Y0100372D01*
X0079839Y0091628D01*
X0081010Y0090457D01*
X0082700Y0090457D01*
X0082700Y0088800D01*
X0079681Y0088800D01*
X0079681Y0089010D01*
X0078510Y0090181D01*
X0074681Y0090181D01*
X0074681Y0094010D01*
X0073510Y0095181D01*
X0069000Y0095181D01*
X0069000Y0099028D01*
X0067828Y0100200D01*
X0061372Y0100200D01*
X0060200Y0099028D01*
X0060200Y0088800D01*
X0059900Y0088800D01*
X0059900Y0099028D01*
X0058728Y0100200D01*
X0052272Y0100200D01*
X0051100Y0099028D01*
X0051100Y0088572D01*
X0052147Y0087524D02*
X0030256Y0087524D01*
X0030256Y0085926D02*
X0052700Y0085926D01*
X0055500Y0086000D02*
X0061012Y0086000D01*
X0061012Y0071000D01*
X0060500Y0071000D01*
X0055862Y0071539D02*
X0055138Y0071539D01*
X0055138Y0069940D02*
X0055862Y0069940D01*
X0055862Y0068342D02*
X0055138Y0068342D01*
X0055138Y0066743D02*
X0055862Y0066743D01*
X0055138Y0066628D02*
X0054510Y0066000D01*
X0055138Y0065372D01*
X0055138Y0056628D01*
X0054510Y0056000D01*
X0055138Y0055372D01*
X0055138Y0046628D01*
X0054510Y0046000D01*
X0055138Y0045372D01*
X0055138Y0036628D01*
X0053966Y0035457D01*
X0046010Y0035457D01*
X0044839Y0036628D01*
X0044839Y0038200D01*
X0030689Y0038200D01*
X0030689Y0036924D01*
X0030489Y0036724D01*
X0030489Y0035882D01*
X0029647Y0035882D01*
X0029647Y0035882D01*
X0030489Y0035882D01*
X0030489Y0034956D01*
X0030366Y0034498D01*
X0030129Y0034088D01*
X0029794Y0033753D01*
X0029384Y0033516D01*
X0028926Y0033393D01*
X0025933Y0033393D01*
X0025933Y0035752D01*
X0025933Y0035752D01*
X0025933Y0033393D01*
X0022940Y0033393D01*
X0022482Y0033516D01*
X0022072Y0033753D01*
X0021737Y0034088D01*
X0021500Y0034498D01*
X0021377Y0034956D01*
X0021377Y0035882D01*
X0021377Y0036724D01*
X0021240Y0036861D01*
X0021240Y0031431D01*
X0020155Y0030346D01*
X0020345Y0030236D01*
X0020681Y0029900D01*
X0020917Y0029490D01*
X0021040Y0029032D01*
X0021040Y0026052D01*
X0016300Y0026052D01*
X0016300Y0024452D01*
X0021040Y0024452D01*
X0021040Y0021472D01*
X0020917Y0021014D01*
X0020681Y0020603D01*
X0020345Y0020268D01*
X0019935Y0020031D01*
X0019477Y0019909D01*
X0016300Y0019909D01*
X0016300Y0024452D01*
X0014700Y0024452D01*
X0014700Y0019909D01*
X0012500Y0019909D01*
X0012500Y0008000D01*
X0182201Y0008000D01*
X0182201Y0123961D01*
X0063986Y0123961D01*
X0064587Y0123360D01*
X0064587Y0113042D01*
X0063415Y0111870D01*
X0047585Y0111870D01*
X0046413Y0113042D01*
X0046413Y0123360D01*
X0047014Y0123961D01*
X0012500Y0123961D01*
X0012500Y0062091D01*
X0014700Y0062091D01*
X0014700Y0057548D01*
X0016300Y0057548D01*
X0021040Y0057548D01*
X0021040Y0060528D01*
X0020917Y0060986D01*
X0020681Y0061397D01*
X0020345Y0061732D01*
X0019935Y0061969D01*
X0019477Y0062091D01*
X0016300Y0062091D01*
X0016300Y0057548D01*
X0016300Y0055948D01*
X0021040Y0055948D01*
X0021040Y0052968D01*
X0020917Y0052510D01*
X0020681Y0052099D01*
X0020345Y0051764D01*
X0020155Y0051654D01*
X0021240Y0050569D01*
X0021240Y0047698D01*
X0022349Y0048807D01*
X0025108Y0048807D01*
X0025376Y0048918D01*
X0032700Y0048918D01*
X0032700Y0051819D01*
X0032490Y0051819D01*
X0031319Y0052990D01*
X0031319Y0059010D01*
X0032490Y0060181D01*
X0037700Y0060181D01*
X0037700Y0071557D01*
X0038126Y0072586D01*
X0038914Y0073374D01*
X0039943Y0073800D01*
X0044839Y0073800D01*
X0044839Y0075372D01*
X0046010Y0076543D01*
X0053966Y0076543D01*
X0055138Y0075372D01*
X0055138Y0066628D01*
X0055138Y0065145D02*
X0055862Y0065145D01*
X0055862Y0063546D02*
X0055138Y0063546D01*
X0055138Y0061948D02*
X0055862Y0061948D01*
X0055862Y0060349D02*
X0055138Y0060349D01*
X0055138Y0058751D02*
X0055862Y0058751D01*
X0055862Y0057152D02*
X0055138Y0057152D01*
X0054956Y0055554D02*
X0056044Y0055554D01*
X0055862Y0053955D02*
X0055138Y0053955D01*
X0055138Y0052357D02*
X0055862Y0052357D01*
X0055862Y0050758D02*
X0055138Y0050758D01*
X0055138Y0049160D02*
X0055862Y0049160D01*
X0055862Y0047561D02*
X0055138Y0047561D01*
X0054547Y0045963D02*
X0056453Y0045963D01*
X0055862Y0044364D02*
X0055138Y0044364D01*
X0055138Y0042766D02*
X0055862Y0042766D01*
X0055862Y0041167D02*
X0055138Y0041167D01*
X0055138Y0039569D02*
X0055862Y0039569D01*
X0055862Y0037970D02*
X0055138Y0037970D01*
X0054881Y0036372D02*
X0056119Y0036372D01*
X0057083Y0034773D02*
X0030440Y0034773D01*
X0030489Y0036372D02*
X0045095Y0036372D01*
X0044839Y0037970D02*
X0030689Y0037970D01*
X0025933Y0035882D02*
X0035500Y0035882D01*
X0035500Y0031000D01*
X0040500Y0031000D01*
X0040500Y0011000D01*
X0110500Y0011000D01*
X0110500Y0021000D01*
X0096012Y0021000D01*
X0096787Y0020387D02*
X0124213Y0020387D01*
X0124213Y0020225D02*
X0120039Y0020225D01*
X0120039Y0017220D01*
X0120161Y0016762D01*
X0120398Y0016351D01*
X0120733Y0016016D01*
X0121144Y0015779D01*
X0121602Y0015657D01*
X0124213Y0015657D01*
X0124213Y0020225D01*
X0124213Y0021775D01*
X0120039Y0021775D01*
X0120039Y0024780D01*
X0120161Y0025238D01*
X0120398Y0025649D01*
X0120733Y0025984D01*
X0121144Y0026221D01*
X0121602Y0026343D01*
X0124213Y0026343D01*
X0124213Y0021775D01*
X0125763Y0021775D01*
X0125763Y0026343D01*
X0128375Y0026343D01*
X0128833Y0026221D01*
X0129243Y0025984D01*
X0129578Y0025649D01*
X0129815Y0025238D01*
X0129938Y0024780D01*
X0129938Y0021775D01*
X0125763Y0021775D01*
X0125763Y0020225D01*
X0125763Y0015657D01*
X0128375Y0015657D01*
X0128833Y0015779D01*
X0129243Y0016016D01*
X0129578Y0016351D01*
X0129815Y0016762D01*
X0129938Y0017220D01*
X0129938Y0020225D01*
X0125763Y0020225D01*
X0124213Y0020225D01*
X0124988Y0021000D02*
X0124988Y0011000D01*
X0170500Y0011000D01*
X0170500Y0026000D01*
X0170500Y0036000D01*
X0170500Y0046000D01*
X0170500Y0056000D01*
X0170700Y0055800D02*
X0170700Y0046200D01*
X0170300Y0046200D01*
X0170300Y0051500D01*
X0170300Y0055800D01*
X0170700Y0055800D01*
X0170700Y0055554D02*
X0170300Y0055554D01*
X0170300Y0053955D02*
X0170700Y0053955D01*
X0170700Y0052357D02*
X0170300Y0052357D01*
X0170300Y0050758D02*
X0170700Y0050758D01*
X0170700Y0049160D02*
X0170300Y0049160D01*
X0170300Y0047561D02*
X0170700Y0047561D01*
X0170700Y0045963D02*
X0182201Y0045963D01*
X0182201Y0044364D02*
X0176000Y0044364D01*
X0175044Y0042766D02*
X0182201Y0042766D01*
X0182201Y0041167D02*
X0173445Y0041167D01*
X0174709Y0039569D02*
X0182201Y0039569D01*
X0182201Y0037970D02*
X0176000Y0037970D01*
X0176000Y0036372D02*
X0182201Y0036372D01*
X0182201Y0034773D02*
X0176000Y0034773D01*
X0175453Y0033175D02*
X0182201Y0033175D01*
X0182201Y0031576D02*
X0173854Y0031576D01*
X0174300Y0029978D02*
X0182201Y0029978D01*
X0182201Y0028379D02*
X0175899Y0028379D01*
X0176000Y0026781D02*
X0182201Y0026781D01*
X0182201Y0025182D02*
X0176000Y0025182D01*
X0176000Y0025800D02*
X0176000Y0023722D01*
X0172778Y0020500D01*
X0170700Y0020500D01*
X0170700Y0025800D01*
X0176000Y0025800D01*
X0175862Y0023584D02*
X0182201Y0023584D01*
X0182201Y0021985D02*
X0174263Y0021985D01*
X0170700Y0021985D02*
X0170300Y0021985D01*
X0170300Y0023584D02*
X0170700Y0023584D01*
X0170700Y0025182D02*
X0170300Y0025182D01*
X0170300Y0026200D02*
X0170300Y0031500D01*
X0170300Y0035800D01*
X0170700Y0035800D01*
X0170700Y0026200D01*
X0170300Y0026200D01*
X0170300Y0026781D02*
X0170700Y0026781D01*
X0170700Y0028379D02*
X0170300Y0028379D01*
X0170300Y0029978D02*
X0170700Y0029978D01*
X0170700Y0031576D02*
X0170300Y0031576D01*
X0170300Y0033175D02*
X0170700Y0033175D01*
X0170700Y0034773D02*
X0170300Y0034773D01*
X0170300Y0036200D02*
X0170300Y0041500D01*
X0170300Y0045800D01*
X0170700Y0045800D01*
X0170700Y0036200D01*
X0170300Y0036200D01*
X0170300Y0036372D02*
X0170700Y0036372D01*
X0170700Y0037970D02*
X0170300Y0037970D01*
X0170300Y0039569D02*
X0170700Y0039569D01*
X0170700Y0041167D02*
X0170300Y0041167D01*
X0170300Y0042766D02*
X0170700Y0042766D01*
X0170700Y0044364D02*
X0170300Y0044364D01*
X0176000Y0047561D02*
X0182201Y0047561D01*
X0182201Y0049160D02*
X0175118Y0049160D01*
X0173520Y0050758D02*
X0182201Y0050758D01*
X0182201Y0052357D02*
X0174635Y0052357D01*
X0176000Y0053955D02*
X0182201Y0053955D01*
X0182201Y0055554D02*
X0176000Y0055554D01*
X0176000Y0057152D02*
X0182201Y0057152D01*
X0182201Y0058751D02*
X0175527Y0058751D01*
X0173929Y0060349D02*
X0182201Y0060349D01*
X0182201Y0061948D02*
X0174509Y0061948D01*
X0176893Y0063546D02*
X0182201Y0063546D01*
X0182201Y0065145D02*
X0178177Y0065145D01*
X0175500Y0066000D02*
X0175500Y0076000D01*
X0150500Y0076000D01*
X0150500Y0071000D01*
X0145500Y0071000D01*
X0145500Y0068126D01*
X0137400Y0068126D01*
X0137400Y0068000D01*
X0130500Y0068000D01*
X0130500Y0071276D01*
X0126000Y0071276D01*
X0126000Y0081500D01*
X0113500Y0081500D01*
X0113500Y0077500D01*
X0103600Y0077500D01*
X0103600Y0077575D01*
X0095500Y0077575D01*
X0095500Y0081000D01*
X0085500Y0081000D01*
X0085500Y0081512D01*
X0085500Y0086000D01*
X0075500Y0086000D01*
X0061012Y0086000D01*
X0060200Y0089123D02*
X0059900Y0089123D01*
X0059900Y0090721D02*
X0060200Y0090721D01*
X0060200Y0092320D02*
X0059900Y0092320D01*
X0059900Y0093918D02*
X0060200Y0093918D01*
X0060200Y0095517D02*
X0059900Y0095517D01*
X0059900Y0097115D02*
X0060200Y0097115D01*
X0060200Y0098714D02*
X0059900Y0098714D01*
X0055500Y0093800D02*
X0055500Y0086000D01*
X0053213Y0084327D02*
X0030256Y0084327D01*
X0029270Y0082729D02*
X0058212Y0082729D01*
X0058212Y0081130D02*
X0012500Y0081130D01*
X0012500Y0079532D02*
X0058212Y0079532D01*
X0058212Y0077933D02*
X0029992Y0077933D01*
X0029933Y0078151D02*
X0030056Y0077694D01*
X0030056Y0075476D01*
X0025881Y0075476D01*
X0025881Y0079257D01*
X0028493Y0079257D01*
X0028951Y0079134D01*
X0029361Y0078897D01*
X0029696Y0078562D01*
X0029933Y0078151D01*
X0030056Y0076334D02*
X0045801Y0076334D01*
X0044839Y0074736D02*
X0025881Y0074736D01*
X0025881Y0076334D02*
X0025119Y0076334D01*
X0025119Y0077933D02*
X0025881Y0077933D01*
X0025881Y0073137D02*
X0025119Y0073137D01*
X0025119Y0071539D02*
X0025881Y0071539D01*
X0029608Y0071539D02*
X0037700Y0071539D01*
X0037700Y0069940D02*
X0012500Y0069940D01*
X0012500Y0068342D02*
X0037700Y0068342D01*
X0037700Y0066743D02*
X0012500Y0066743D01*
X0012500Y0065145D02*
X0037700Y0065145D01*
X0037700Y0063546D02*
X0012500Y0063546D01*
X0014700Y0061948D02*
X0016300Y0061948D01*
X0016300Y0060349D02*
X0014700Y0060349D01*
X0014700Y0058751D02*
X0016300Y0058751D01*
X0016300Y0057152D02*
X0031319Y0057152D01*
X0031319Y0055554D02*
X0021040Y0055554D01*
X0021040Y0053955D02*
X0031319Y0053955D01*
X0031953Y0052357D02*
X0020829Y0052357D01*
X0021050Y0050758D02*
X0032700Y0050758D01*
X0032700Y0049160D02*
X0021240Y0049160D01*
X0025933Y0046118D02*
X0035500Y0046118D01*
X0035500Y0056000D01*
X0031319Y0058751D02*
X0021040Y0058751D01*
X0021040Y0060349D02*
X0037700Y0060349D01*
X0037700Y0061948D02*
X0019971Y0061948D01*
X0025500Y0061000D02*
X0025500Y0066000D01*
X0021392Y0071539D02*
X0012500Y0071539D01*
X0030056Y0073137D02*
X0038678Y0073137D01*
X0040500Y0071000D02*
X0049988Y0071000D01*
X0055138Y0073137D02*
X0055862Y0073137D01*
X0055862Y0074736D02*
X0055138Y0074736D01*
X0054175Y0076334D02*
X0056825Y0076334D01*
X0063812Y0077933D02*
X0079957Y0077933D01*
X0081262Y0075315D02*
X0081720Y0075438D01*
X0084725Y0075438D01*
X0084725Y0071263D01*
X0084725Y0069713D01*
X0086275Y0069713D01*
X0086275Y0065539D01*
X0089280Y0065539D01*
X0089738Y0065661D01*
X0090149Y0065898D01*
X0090484Y0066233D01*
X0090721Y0066644D01*
X0090843Y0067102D01*
X0090843Y0069713D01*
X0086275Y0069713D01*
X0086275Y0071263D01*
X0090843Y0071263D01*
X0090843Y0073875D01*
X0090721Y0074333D01*
X0090484Y0074743D01*
X0090149Y0075078D01*
X0089738Y0075315D01*
X0089280Y0075438D01*
X0086275Y0075438D01*
X0086275Y0071263D01*
X0084725Y0071263D01*
X0080157Y0071263D01*
X0080157Y0073875D01*
X0080279Y0074333D01*
X0080516Y0074743D01*
X0080851Y0075078D01*
X0081262Y0075315D01*
X0080512Y0074736D02*
X0066161Y0074736D01*
X0066161Y0073137D02*
X0080157Y0073137D01*
X0080157Y0071539D02*
X0066161Y0071539D01*
X0066161Y0069940D02*
X0084725Y0069940D01*
X0084725Y0069713D02*
X0080157Y0069713D01*
X0080157Y0067102D01*
X0080279Y0066644D01*
X0080516Y0066233D01*
X0080851Y0065898D01*
X0081262Y0065661D01*
X0081720Y0065539D01*
X0084725Y0065539D01*
X0084725Y0069713D01*
X0085500Y0070488D02*
X0085500Y0071000D01*
X0095500Y0071000D01*
X0095500Y0074425D01*
X0103600Y0074425D01*
X0099300Y0074425D01*
X0103600Y0074425D01*
X0103600Y0074425D01*
X0103600Y0074425D01*
X0107900Y0074425D01*
X0107900Y0074076D01*
X0123200Y0074076D01*
X0123200Y0078700D01*
X0116300Y0078700D01*
X0116300Y0078057D01*
X0116300Y0076943D01*
X0115874Y0075914D01*
X0115086Y0075126D01*
X0114057Y0074700D01*
X0107900Y0074700D01*
X0107900Y0074425D01*
X0103600Y0074425D01*
X0117500Y0074425D01*
X0117500Y0077000D01*
X0116300Y0077933D02*
X0123200Y0077933D01*
X0123200Y0076334D02*
X0116048Y0076334D01*
X0114144Y0074736D02*
X0123200Y0074736D01*
X0126000Y0071276D02*
X0103600Y0071276D01*
X0103600Y0068126D02*
X0103600Y0068000D01*
X0097500Y0068000D01*
X0095500Y0066000D01*
X0095500Y0056000D01*
X0085500Y0056000D01*
X0085500Y0041000D01*
X0091799Y0041000D01*
X0095500Y0041000D01*
X0104626Y0041167D02*
X0116374Y0041167D01*
X0116374Y0042766D02*
X0104626Y0042766D01*
X0104626Y0044364D02*
X0116374Y0044364D01*
X0116571Y0045963D02*
X0104429Y0045963D01*
X0098380Y0049160D02*
X0088300Y0049160D01*
X0088300Y0050758D02*
X0097700Y0050758D01*
X0097700Y0052357D02*
X0088300Y0052357D01*
X0088300Y0047561D02*
X0117700Y0047561D01*
X0120500Y0051000D02*
X0120500Y0041000D01*
X0129201Y0041000D01*
X0135500Y0041000D01*
X0135500Y0021000D01*
X0136012Y0021000D01*
X0141161Y0020387D02*
X0158052Y0020387D01*
X0156454Y0021985D02*
X0141161Y0021985D01*
X0141161Y0023584D02*
X0154855Y0023584D01*
X0154800Y0025182D02*
X0141161Y0025182D01*
X0138300Y0026781D02*
X0154800Y0026781D01*
X0154818Y0028379D02*
X0138300Y0028379D01*
X0138300Y0029978D02*
X0156417Y0029978D01*
X0156863Y0031576D02*
X0138300Y0031576D01*
X0138300Y0033175D02*
X0155264Y0033175D01*
X0154800Y0034773D02*
X0138300Y0034773D01*
X0142028Y0036372D02*
X0154800Y0036372D01*
X0154800Y0037970D02*
X0142028Y0037970D01*
X0142028Y0039569D02*
X0156008Y0039569D01*
X0157272Y0041167D02*
X0142028Y0041167D01*
X0145500Y0046000D02*
X0145500Y0053500D01*
X0140500Y0053500D01*
X0140500Y0065000D01*
X0137400Y0065000D01*
X0137400Y0064976D01*
X0135500Y0059100D02*
X0131524Y0059100D01*
X0128500Y0059100D02*
X0128374Y0059100D01*
X0128374Y0051000D01*
X0128500Y0051000D01*
X0135500Y0051000D02*
X0135500Y0059100D01*
X0145500Y0061000D02*
X0153500Y0061000D01*
X0153500Y0046000D01*
X0160500Y0046000D01*
X0155673Y0042766D02*
X0149456Y0042766D01*
X0149681Y0044364D02*
X0151176Y0044364D01*
X0150700Y0045963D02*
X0149681Y0045963D01*
X0149681Y0047561D02*
X0150700Y0047561D01*
X0150700Y0049160D02*
X0149531Y0049160D01*
X0150700Y0050758D02*
X0148300Y0050758D01*
X0148300Y0052357D02*
X0150700Y0052357D01*
X0150700Y0053955D02*
X0148300Y0053955D01*
X0147406Y0055554D02*
X0150700Y0055554D01*
X0150700Y0057152D02*
X0148843Y0057152D01*
X0142700Y0070926D02*
X0141900Y0070926D01*
X0141900Y0076354D01*
X0141700Y0076554D01*
X0141700Y0077575D01*
X0141700Y0078596D01*
X0141900Y0078796D01*
X0141900Y0088952D01*
X0140728Y0090124D01*
X0134624Y0090124D01*
X0134624Y0096228D01*
X0133452Y0097400D01*
X0121800Y0097400D01*
X0121800Y0103200D01*
X0141819Y0103200D01*
X0141819Y0102990D01*
X0142990Y0101819D01*
X0149010Y0101819D01*
X0150181Y0102990D01*
X0150181Y0103946D01*
X0150668Y0102771D01*
X0152271Y0101168D01*
X0154366Y0100300D01*
X0156634Y0100300D01*
X0158729Y0101168D01*
X0160332Y0102771D01*
X0160619Y0103464D01*
X0160796Y0103117D01*
X0161305Y0102417D01*
X0161917Y0101805D01*
X0162617Y0101296D01*
X0163389Y0100903D01*
X0164212Y0100635D01*
X0165067Y0100500D01*
X0165300Y0100500D01*
X0165300Y0105800D01*
X0165700Y0105800D01*
X0165700Y0100500D01*
X0165933Y0100500D01*
X0166788Y0100635D01*
X0167611Y0100903D01*
X0168383Y0101296D01*
X0169083Y0101805D01*
X0169695Y0102417D01*
X0170204Y0103117D01*
X0170381Y0103464D01*
X0170668Y0102771D01*
X0172271Y0101168D01*
X0172700Y0100990D01*
X0172700Y0078800D01*
X0149943Y0078800D01*
X0148914Y0078374D01*
X0148126Y0077586D01*
X0147700Y0076557D01*
X0147700Y0073800D01*
X0144943Y0073800D01*
X0143914Y0073374D01*
X0143126Y0072586D01*
X0142700Y0071557D01*
X0142700Y0070926D01*
X0142700Y0071539D02*
X0141900Y0071539D01*
X0141900Y0073137D02*
X0143678Y0073137D01*
X0141900Y0074736D02*
X0147700Y0074736D01*
X0147700Y0076334D02*
X0141900Y0076334D01*
X0141700Y0077575D02*
X0137400Y0077575D01*
X0141700Y0077575D01*
X0141700Y0077933D02*
X0148473Y0077933D01*
X0145500Y0077575D02*
X0145500Y0091000D01*
X0165500Y0091000D01*
X0165500Y0106000D01*
X0165500Y0116000D01*
X0165763Y0116297D02*
X0170862Y0116297D01*
X0169938Y0116775D02*
X0169938Y0119780D01*
X0169815Y0120238D01*
X0169578Y0120649D01*
X0169243Y0120984D01*
X0168833Y0121221D01*
X0168375Y0121343D01*
X0165763Y0121343D01*
X0165763Y0116775D01*
X0164213Y0116775D01*
X0164213Y0115225D01*
X0165763Y0115225D01*
X0165763Y0116775D01*
X0169938Y0116775D01*
X0169938Y0117896D02*
X0170862Y0117896D01*
X0170862Y0119494D02*
X0169938Y0119494D01*
X0169054Y0121093D02*
X0171583Y0121093D01*
X0165763Y0121093D02*
X0164213Y0121093D01*
X0164213Y0121343D02*
X0161602Y0121343D01*
X0161144Y0121221D01*
X0160733Y0120984D01*
X0160398Y0120649D01*
X0160161Y0120238D01*
X0160039Y0119780D01*
X0160039Y0116775D01*
X0164213Y0116775D01*
X0164213Y0121343D01*
X0164213Y0119494D02*
X0165763Y0119494D01*
X0165763Y0117896D02*
X0164213Y0117896D01*
X0164213Y0116297D02*
X0064587Y0116297D01*
X0064587Y0114699D02*
X0122008Y0114699D01*
X0121319Y0113100D02*
X0064587Y0113100D01*
X0064587Y0117896D02*
X0160039Y0117896D01*
X0160039Y0119494D02*
X0064587Y0119494D01*
X0064587Y0121093D02*
X0160922Y0121093D01*
X0160039Y0114699D02*
X0128992Y0114699D01*
X0125500Y0111000D02*
X0155500Y0111000D01*
X0155500Y0106000D01*
X0159472Y0101911D02*
X0161811Y0101911D01*
X0165300Y0101911D02*
X0165700Y0101911D01*
X0165700Y0103509D02*
X0165300Y0103509D01*
X0165300Y0105108D02*
X0165700Y0105108D01*
X0165700Y0106706D02*
X0165300Y0106706D01*
X0165300Y0108305D02*
X0165700Y0108305D01*
X0165700Y0109903D02*
X0165300Y0109903D01*
X0165763Y0111502D02*
X0164213Y0111502D01*
X0164213Y0113100D02*
X0165763Y0113100D01*
X0165763Y0114699D02*
X0164213Y0114699D01*
X0160039Y0113100D02*
X0157360Y0113100D01*
X0158300Y0111502D02*
X0160311Y0111502D01*
X0159658Y0109903D02*
X0161625Y0109903D01*
X0169375Y0109903D02*
X0171342Y0109903D01*
X0170989Y0111502D02*
X0169665Y0111502D01*
X0169938Y0113100D02*
X0170862Y0113100D01*
X0170862Y0114699D02*
X0169938Y0114699D01*
X0175500Y0116000D02*
X0176012Y0116000D01*
X0175500Y0116000D02*
X0175500Y0106000D01*
X0175500Y0076000D01*
X0178300Y0076334D02*
X0182201Y0076334D01*
X0182201Y0074736D02*
X0178300Y0074736D01*
X0178300Y0073137D02*
X0182201Y0073137D01*
X0182201Y0071539D02*
X0178300Y0071539D01*
X0178300Y0069940D02*
X0182201Y0069940D01*
X0182201Y0068342D02*
X0178300Y0068342D01*
X0178300Y0066743D02*
X0182201Y0066743D01*
X0175500Y0066000D02*
X0170500Y0066000D01*
X0178300Y0077933D02*
X0182201Y0077933D01*
X0182201Y0079532D02*
X0178300Y0079532D01*
X0178300Y0081130D02*
X0182201Y0081130D01*
X0182201Y0082729D02*
X0178300Y0082729D01*
X0178300Y0084327D02*
X0182201Y0084327D01*
X0182201Y0085926D02*
X0178300Y0085926D01*
X0178300Y0087524D02*
X0182201Y0087524D01*
X0182201Y0089123D02*
X0178300Y0089123D01*
X0178300Y0090721D02*
X0182201Y0090721D01*
X0182201Y0092320D02*
X0178300Y0092320D01*
X0178300Y0093918D02*
X0182201Y0093918D01*
X0182201Y0095517D02*
X0178300Y0095517D01*
X0178300Y0097115D02*
X0182201Y0097115D01*
X0182201Y0098714D02*
X0178300Y0098714D01*
X0178300Y0100312D02*
X0182201Y0100312D01*
X0182201Y0101911D02*
X0179472Y0101911D01*
X0180638Y0103509D02*
X0182201Y0103509D01*
X0182201Y0105108D02*
X0181200Y0105108D01*
X0181200Y0106706D02*
X0182201Y0106706D01*
X0182201Y0108305D02*
X0180715Y0108305D01*
X0179658Y0109903D02*
X0182201Y0109903D01*
X0182201Y0111502D02*
X0181035Y0111502D01*
X0181161Y0113100D02*
X0182201Y0113100D01*
X0182201Y0114699D02*
X0181161Y0114699D01*
X0181161Y0116297D02*
X0182201Y0116297D01*
X0182201Y0117896D02*
X0181161Y0117896D01*
X0181161Y0119494D02*
X0182201Y0119494D01*
X0182201Y0121093D02*
X0180440Y0121093D01*
X0182201Y0122691D02*
X0064587Y0122691D01*
X0046413Y0122691D02*
X0012500Y0122691D01*
X0012500Y0117896D02*
X0023436Y0117896D01*
X0022700Y0116297D02*
X0012500Y0116297D01*
X0012500Y0114699D02*
X0022700Y0114699D01*
X0022700Y0113100D02*
X0012500Y0113100D01*
X0012500Y0111502D02*
X0020969Y0111502D01*
X0019957Y0109903D02*
X0012500Y0109903D01*
X0012500Y0108305D02*
X0019957Y0108305D01*
X0028300Y0113100D02*
X0031319Y0113100D01*
X0030031Y0111502D02*
X0121319Y0111502D01*
X0121319Y0109903D02*
X0031043Y0109903D01*
X0031043Y0108305D02*
X0093845Y0108305D01*
X0092762Y0106706D02*
X0031043Y0106706D01*
X0031043Y0105108D02*
X0092700Y0105108D01*
X0092700Y0103509D02*
X0031043Y0103509D01*
X0030420Y0101911D02*
X0092700Y0101911D01*
X0090862Y0100312D02*
X0090138Y0100312D01*
X0090138Y0098714D02*
X0090862Y0098714D01*
X0090862Y0097115D02*
X0090138Y0097115D01*
X0090138Y0095517D02*
X0090862Y0095517D01*
X0090862Y0093918D02*
X0090138Y0093918D01*
X0090138Y0092320D02*
X0090862Y0092320D01*
X0091769Y0090721D02*
X0089231Y0090721D01*
X0088300Y0089123D02*
X0091432Y0089123D01*
X0091319Y0087524D02*
X0088300Y0087524D01*
X0090608Y0085926D02*
X0091319Y0085926D01*
X0091319Y0084327D02*
X0091043Y0084327D01*
X0095500Y0086000D02*
X0095500Y0087000D01*
X0103600Y0087000D01*
X0103600Y0087024D01*
X0108100Y0087524D02*
X0132900Y0087524D01*
X0132900Y0088400D02*
X0132900Y0078796D01*
X0133100Y0078596D01*
X0133100Y0077575D01*
X0137400Y0077575D01*
X0137400Y0077575D01*
X0137400Y0077575D01*
X0145500Y0077575D01*
X0141900Y0079532D02*
X0172700Y0079532D01*
X0172700Y0081130D02*
X0141900Y0081130D01*
X0141900Y0082729D02*
X0172700Y0082729D01*
X0172700Y0084327D02*
X0141900Y0084327D01*
X0141900Y0085926D02*
X0172700Y0085926D01*
X0172700Y0087524D02*
X0141900Y0087524D01*
X0141729Y0089123D02*
X0172700Y0089123D01*
X0172700Y0090721D02*
X0134624Y0090721D01*
X0132900Y0088400D02*
X0108100Y0088400D01*
X0108100Y0081946D01*
X0107900Y0081746D01*
X0107900Y0080724D01*
X0103600Y0080724D01*
X0103600Y0080724D01*
X0099300Y0080724D01*
X0099300Y0080375D01*
X0098300Y0080375D01*
X0098300Y0081557D01*
X0098191Y0081819D01*
X0098510Y0081819D01*
X0099100Y0082409D01*
X0099100Y0081946D01*
X0099300Y0081746D01*
X0099300Y0080724D01*
X0103600Y0080724D01*
X0103600Y0080724D01*
X0103600Y0080500D01*
X0110000Y0080500D01*
X0110000Y0086000D01*
X0117500Y0086000D01*
X0112943Y0084300D02*
X0111914Y0083874D01*
X0111126Y0083086D01*
X0110700Y0082057D01*
X0110700Y0080300D01*
X0107900Y0080300D01*
X0107900Y0080724D01*
X0103600Y0080724D01*
X0107900Y0081130D02*
X0110700Y0081130D01*
X0110978Y0082729D02*
X0108100Y0082729D01*
X0108100Y0084327D02*
X0132900Y0084327D01*
X0132900Y0082729D02*
X0128522Y0082729D01*
X0128374Y0083086D02*
X0128800Y0082057D01*
X0128800Y0074076D01*
X0131057Y0074076D01*
X0132086Y0073649D01*
X0132874Y0072862D01*
X0132900Y0072798D01*
X0132900Y0076354D01*
X0133100Y0076554D01*
X0133100Y0077575D01*
X0137400Y0077575D01*
X0133100Y0077933D02*
X0128800Y0077933D01*
X0128800Y0076334D02*
X0132900Y0076334D01*
X0132900Y0074736D02*
X0128800Y0074736D01*
X0132598Y0073137D02*
X0132900Y0073137D01*
X0132900Y0079532D02*
X0128800Y0079532D01*
X0128800Y0081130D02*
X0132900Y0081130D01*
X0128374Y0083086D02*
X0127586Y0083874D01*
X0126557Y0084300D01*
X0112943Y0084300D01*
X0108100Y0085926D02*
X0132900Y0085926D01*
X0134624Y0092320D02*
X0172700Y0092320D01*
X0172700Y0093918D02*
X0134624Y0093918D01*
X0134624Y0095517D02*
X0172700Y0095517D01*
X0172700Y0097115D02*
X0133737Y0097115D01*
X0142899Y0101911D02*
X0121800Y0101911D01*
X0121800Y0100312D02*
X0154337Y0100312D01*
X0156663Y0100312D02*
X0172700Y0100312D01*
X0172700Y0098714D02*
X0121800Y0098714D01*
X0119000Y0092900D02*
X0119000Y0106000D01*
X0146000Y0106000D01*
X0150181Y0103509D02*
X0150362Y0103509D01*
X0151528Y0101911D02*
X0149101Y0101911D01*
X0165500Y0091000D02*
X0170500Y0091000D01*
X0171528Y0101911D02*
X0169189Y0101911D01*
X0119000Y0106000D02*
X0095500Y0106000D01*
X0095500Y0096000D01*
X0096012Y0096000D01*
X0101161Y0095517D02*
X0106376Y0095517D01*
X0106376Y0093918D02*
X0101161Y0093918D01*
X0101161Y0092320D02*
X0106376Y0092320D01*
X0106376Y0090721D02*
X0100254Y0090721D01*
X0101161Y0097115D02*
X0102194Y0097115D01*
X0101319Y0098714D02*
X0101161Y0098714D01*
X0101161Y0100312D02*
X0101319Y0100312D01*
X0101319Y0101911D02*
X0098300Y0101911D01*
X0105500Y0101000D02*
X0109476Y0101000D01*
X0109476Y0092900D01*
X0118925Y0092900D02*
X0119000Y0092900D01*
X0099300Y0081130D02*
X0098300Y0081130D01*
X0092700Y0077933D02*
X0091043Y0077933D01*
X0092983Y0076334D02*
X0065199Y0076334D01*
X0063812Y0079532D02*
X0079957Y0079532D01*
X0079957Y0081130D02*
X0063812Y0081130D01*
X0063812Y0082729D02*
X0071581Y0082729D01*
X0079419Y0082729D02*
X0079957Y0082729D01*
X0085500Y0086000D02*
X0085500Y0096000D01*
X0084988Y0096000D01*
X0079839Y0095517D02*
X0069000Y0095517D01*
X0069000Y0097115D02*
X0079839Y0097115D01*
X0079839Y0098714D02*
X0069000Y0098714D01*
X0064600Y0093800D02*
X0064600Y0091000D01*
X0070500Y0091000D01*
X0074681Y0090721D02*
X0080746Y0090721D01*
X0079568Y0089123D02*
X0082700Y0089123D01*
X0079839Y0092320D02*
X0074681Y0092320D01*
X0074681Y0093918D02*
X0079839Y0093918D01*
X0079839Y0100312D02*
X0030197Y0100312D01*
X0031043Y0098714D02*
X0042274Y0098714D01*
X0042200Y0097115D02*
X0031043Y0097115D01*
X0031043Y0095517D02*
X0042200Y0095517D01*
X0042200Y0093400D02*
X0042200Y0089163D01*
X0042323Y0088705D01*
X0042560Y0088295D01*
X0042895Y0087960D01*
X0043305Y0087723D01*
X0043763Y0087600D01*
X0046000Y0087600D01*
X0046000Y0093400D01*
X0042200Y0093400D01*
X0042200Y0092320D02*
X0031043Y0092320D01*
X0031043Y0093918D02*
X0046000Y0093918D01*
X0046000Y0092320D02*
X0046800Y0092320D01*
X0046800Y0090721D02*
X0046000Y0090721D01*
X0046000Y0089123D02*
X0046800Y0089123D01*
X0042211Y0089123D02*
X0030256Y0089123D01*
X0030254Y0090721D02*
X0042200Y0090721D01*
X0046000Y0095517D02*
X0046800Y0095517D01*
X0046800Y0097115D02*
X0046000Y0097115D01*
X0046000Y0098714D02*
X0046800Y0098714D01*
X0050526Y0098714D02*
X0051100Y0098714D01*
X0051100Y0097115D02*
X0050600Y0097115D01*
X0050600Y0095517D02*
X0051100Y0095517D01*
X0025500Y0095488D02*
X0025500Y0086906D01*
X0040500Y0071000D02*
X0040500Y0061000D01*
X0049988Y0061000D01*
X0040500Y0061000D02*
X0040500Y0043559D01*
X0025933Y0043559D01*
X0025933Y0041000D02*
X0044500Y0041000D01*
X0044500Y0051000D01*
X0049988Y0051000D01*
X0061012Y0051000D02*
X0070500Y0051000D01*
X0074681Y0050758D02*
X0082700Y0050758D01*
X0082700Y0049160D02*
X0074681Y0049160D01*
X0074252Y0047561D02*
X0082700Y0047561D01*
X0079170Y0045963D02*
X0065570Y0045963D01*
X0066161Y0044364D02*
X0078972Y0044364D01*
X0078972Y0042766D02*
X0066161Y0042766D01*
X0066161Y0041167D02*
X0078972Y0041167D01*
X0078972Y0039569D02*
X0066161Y0039569D01*
X0066161Y0037970D02*
X0078972Y0037970D01*
X0078972Y0036372D02*
X0065905Y0036372D01*
X0063917Y0034773D02*
X0082700Y0034773D01*
X0082700Y0033175D02*
X0064681Y0033175D01*
X0064681Y0031576D02*
X0082700Y0031576D01*
X0082700Y0029978D02*
X0064681Y0029978D01*
X0064681Y0028379D02*
X0082700Y0028379D01*
X0082700Y0026781D02*
X0021040Y0026781D01*
X0021040Y0028379D02*
X0056319Y0028379D01*
X0056319Y0029978D02*
X0020603Y0029978D01*
X0021240Y0031576D02*
X0056319Y0031576D01*
X0056319Y0033175D02*
X0021240Y0033175D01*
X0021240Y0034773D02*
X0021426Y0034773D01*
X0021377Y0035882D02*
X0022219Y0035882D01*
X0022219Y0035882D01*
X0021377Y0035882D01*
X0021377Y0036372D02*
X0021240Y0036372D01*
X0025933Y0034773D02*
X0025933Y0034773D01*
X0035500Y0031000D02*
X0035500Y0026000D01*
X0021040Y0023584D02*
X0079839Y0023584D01*
X0079839Y0025182D02*
X0016300Y0025182D01*
X0016300Y0023584D02*
X0014700Y0023584D01*
X0014700Y0021985D02*
X0016300Y0021985D01*
X0016300Y0020387D02*
X0014700Y0020387D01*
X0012500Y0018788D02*
X0079839Y0018788D01*
X0079839Y0017190D02*
X0012500Y0017190D01*
X0012500Y0015591D02*
X0080876Y0015591D01*
X0079839Y0020387D02*
X0020464Y0020387D01*
X0021040Y0021985D02*
X0079839Y0021985D01*
X0084988Y0021000D02*
X0085500Y0021000D01*
X0085500Y0041000D01*
X0088300Y0034773D02*
X0132700Y0034773D01*
X0132700Y0033175D02*
X0088300Y0033175D01*
X0088300Y0031576D02*
X0132700Y0031576D01*
X0132700Y0029978D02*
X0088300Y0029978D01*
X0088300Y0028379D02*
X0132700Y0028379D01*
X0132700Y0026781D02*
X0088300Y0026781D01*
X0090138Y0025182D02*
X0091170Y0025182D01*
X0091185Y0025238D02*
X0091062Y0024780D01*
X0091062Y0021775D01*
X0095237Y0021775D01*
X0095237Y0026343D01*
X0092625Y0026343D01*
X0092167Y0026221D01*
X0091757Y0025984D01*
X0091422Y0025649D01*
X0091185Y0025238D01*
X0091062Y0023584D02*
X0090138Y0023584D01*
X0090138Y0021985D02*
X0091062Y0021985D01*
X0091062Y0020225D02*
X0091062Y0017220D01*
X0091185Y0016762D01*
X0091422Y0016351D01*
X0091757Y0016016D01*
X0092167Y0015779D01*
X0092625Y0015657D01*
X0095237Y0015657D01*
X0095237Y0020225D01*
X0096787Y0020225D01*
X0096787Y0021775D01*
X0100961Y0021775D01*
X0100961Y0024780D01*
X0100839Y0025238D01*
X0100602Y0025649D01*
X0100267Y0025984D01*
X0099856Y0026221D01*
X0099398Y0026343D01*
X0096787Y0026343D01*
X0096787Y0021775D01*
X0095237Y0021775D01*
X0095237Y0020225D01*
X0091062Y0020225D01*
X0090138Y0020387D02*
X0095237Y0020387D01*
X0096787Y0020225D02*
X0096787Y0015657D01*
X0099398Y0015657D01*
X0099856Y0015779D01*
X0100267Y0016016D01*
X0100602Y0016351D01*
X0100839Y0016762D01*
X0100961Y0017220D01*
X0100961Y0020225D01*
X0096787Y0020225D01*
X0096787Y0018788D02*
X0095237Y0018788D01*
X0095237Y0017190D02*
X0096787Y0017190D01*
X0100953Y0017190D02*
X0120047Y0017190D01*
X0120039Y0018788D02*
X0100961Y0018788D01*
X0100961Y0021985D02*
X0120039Y0021985D01*
X0120039Y0023584D02*
X0100961Y0023584D01*
X0100854Y0025182D02*
X0120146Y0025182D01*
X0124213Y0025182D02*
X0125763Y0025182D01*
X0125763Y0023584D02*
X0124213Y0023584D01*
X0124213Y0021985D02*
X0125763Y0021985D01*
X0124988Y0021000D02*
X0110500Y0021000D01*
X0096787Y0021985D02*
X0095237Y0021985D01*
X0095237Y0023584D02*
X0096787Y0023584D01*
X0096787Y0025182D02*
X0095237Y0025182D01*
X0091062Y0018788D02*
X0090138Y0018788D01*
X0090138Y0017190D02*
X0091070Y0017190D01*
X0089101Y0015591D02*
X0131899Y0015591D01*
X0130862Y0017190D02*
X0129930Y0017190D01*
X0129938Y0018788D02*
X0130862Y0018788D01*
X0130862Y0020387D02*
X0125763Y0020387D01*
X0125763Y0018788D02*
X0124213Y0018788D01*
X0124213Y0017190D02*
X0125763Y0017190D01*
X0129938Y0021985D02*
X0130862Y0021985D01*
X0130862Y0023584D02*
X0129938Y0023584D01*
X0129830Y0025182D02*
X0130862Y0025182D01*
X0141161Y0018788D02*
X0182201Y0018788D01*
X0182201Y0017190D02*
X0141161Y0017190D01*
X0140124Y0015591D02*
X0182201Y0015591D01*
X0182201Y0013993D02*
X0012500Y0013993D01*
X0012500Y0012394D02*
X0182201Y0012394D01*
X0182201Y0010796D02*
X0012500Y0010796D01*
X0012500Y0009197D02*
X0182201Y0009197D01*
X0182201Y0020387D02*
X0162948Y0020387D01*
X0164546Y0021985D02*
X0166737Y0021985D01*
X0130500Y0041000D02*
X0129201Y0041000D01*
X0116374Y0039569D02*
X0104626Y0039569D01*
X0104626Y0037970D02*
X0116374Y0037970D01*
X0116374Y0036372D02*
X0104626Y0036372D01*
X0100500Y0051000D02*
X0120500Y0051000D01*
X0115776Y0059100D02*
X0115776Y0066000D01*
X0115500Y0066000D01*
X0103600Y0064976D02*
X0100500Y0061876D01*
X0100500Y0051000D01*
X0097700Y0053955D02*
X0097415Y0053955D01*
X0092700Y0060349D02*
X0079681Y0060349D01*
X0079681Y0061948D02*
X0092700Y0061948D01*
X0092700Y0063546D02*
X0079681Y0063546D01*
X0078546Y0065145D02*
X0092700Y0065145D01*
X0092777Y0066743D02*
X0090747Y0066743D01*
X0090843Y0068342D02*
X0093882Y0068342D01*
X0095481Y0069940D02*
X0086275Y0069940D01*
X0086275Y0068342D02*
X0084725Y0068342D01*
X0084725Y0066743D02*
X0086275Y0066743D01*
X0086275Y0071539D02*
X0084725Y0071539D01*
X0084725Y0073137D02*
X0086275Y0073137D01*
X0086275Y0074736D02*
X0084725Y0074736D01*
X0090488Y0074736D02*
X0099300Y0074736D01*
X0099100Y0073137D02*
X0090843Y0073137D01*
X0090843Y0071539D02*
X0099100Y0071539D01*
X0103000Y0064976D02*
X0103600Y0064976D01*
X0084824Y0058751D02*
X0079681Y0058751D01*
X0078843Y0057152D02*
X0082947Y0057152D01*
X0082700Y0055554D02*
X0065979Y0055554D01*
X0066161Y0057152D02*
X0072157Y0057152D01*
X0074681Y0053955D02*
X0082700Y0053955D01*
X0082700Y0052357D02*
X0074681Y0052357D01*
X0066319Y0053955D02*
X0066161Y0053955D01*
X0066161Y0047561D02*
X0066748Y0047561D01*
X0061012Y0041000D02*
X0060500Y0041000D01*
X0060500Y0031000D01*
X0049988Y0041000D02*
X0044500Y0041000D01*
X0061012Y0061000D02*
X0075500Y0061000D01*
X0072454Y0065145D02*
X0066161Y0065145D01*
X0066161Y0066743D02*
X0080253Y0066743D01*
X0080157Y0068342D02*
X0066161Y0068342D01*
X0046413Y0113100D02*
X0039681Y0113100D01*
X0039681Y0114699D02*
X0046413Y0114699D01*
X0046413Y0116297D02*
X0039681Y0116297D01*
D25*
X0035500Y0116000D03*
X0015500Y0116000D03*
X0070500Y0091000D03*
X0075500Y0086000D03*
X0095500Y0086000D03*
X0117500Y0086000D03*
X0117500Y0077000D03*
X0115500Y0066000D03*
X0128500Y0051000D03*
X0135500Y0051000D03*
X0145500Y0046000D03*
X0145500Y0061000D03*
X0170500Y0091000D03*
X0146000Y0106000D03*
X0125500Y0111000D03*
X0115500Y0116000D03*
X0105500Y0101000D03*
X0085500Y0116000D03*
X0145500Y0121000D03*
X0075500Y0061000D03*
X0070500Y0051000D03*
X0075500Y0031000D03*
X0060500Y0031000D03*
X0045500Y0031000D03*
X0035500Y0026000D03*
X0035500Y0056000D03*
X0025500Y0061000D03*
X0110500Y0021000D03*
M02*
