G75*
%MOIN*%
%OFA0B0*%
%FSLAX25Y25*%
%IPPOS*%
%LPD*%
%AMOC8*
5,1,8,0,0,1.08239X$1,22.5*
%
%ADD10OC8,0.08200*%
%ADD11C,0.08200*%
%ADD12R,0.05162X0.05162*%
D10*
X0160500Y0026000D03*
X0170500Y0026000D03*
X0170500Y0036000D03*
X0160500Y0036000D03*
X0160500Y0046000D03*
X0170500Y0046000D03*
X0170500Y0056000D03*
X0160500Y0056000D03*
X0160500Y0066000D03*
X0170500Y0066000D03*
D11*
X0165500Y0106000D03*
X0155500Y0106000D03*
X0175500Y0106000D03*
D12*
X0035500Y0026000D03*
X0045500Y0031000D03*
X0060500Y0031000D03*
X0075500Y0031000D03*
X0070500Y0051000D03*
X0075500Y0061000D03*
X0075500Y0086000D03*
X0070500Y0091000D03*
X0095500Y0086000D03*
X0117500Y0086000D03*
X0117500Y0077000D03*
X0115500Y0066000D03*
X0128500Y0051000D03*
X0135500Y0051000D03*
X0145500Y0046000D03*
X0145500Y0061000D03*
X0170500Y0091000D03*
X0146000Y0106000D03*
X0125500Y0111000D03*
X0115500Y0116000D03*
X0105500Y0101000D03*
X0085500Y0116000D03*
X0035500Y0116000D03*
X0015500Y0116000D03*
X0025500Y0061000D03*
X0035500Y0056000D03*
X0110500Y0021000D03*
X0145500Y0121000D03*
M02*
