%
M48
M72
T01C0.02362
T02C0.04000
%
T01
X35500Y26000
X45500Y31000
X60500Y31000
X75500Y31000
X70500Y51000
X75500Y61000
X75500Y86000
X70500Y91000
X95500Y86000
X117500Y86000
X117500Y77000
X115500Y66000
X128500Y51000
X135500Y51000
X145500Y46000
X145500Y61000
X170500Y91000
X146000Y106000
X125500Y111000
X115500Y116000
X105500Y101000
X85500Y116000
X35500Y116000
X15500Y116000
X25500Y61000
X35500Y56000
X110500Y21000
X145500Y121000
T02
X155500Y106000
X165500Y106000
X175500Y106000
X170500Y66000
X160500Y66000
X160500Y56000
X170500Y56000
X170500Y46000
X160500Y46000
X160500Y36000
X170500Y36000
X170500Y26000
X160500Y26000
M30
